<svg width="476" height="402" viewBox="0 0 476 402" fill="none" xmlns="http://www.w3.org/2000/svg">
<g clip-path="url(#clip0)">
<path d="M253.624 119.605C253.234 119.998 252.876 120.42 252.552 120.869L202.99 119.118L197.321 108.487L180.159 114.945L188.365 134.745C189.028 136.344 190.192 137.685 191.682 138.567C193.171 139.448 194.907 139.823 196.628 139.634L252.713 133.476C254.016 135.164 255.803 136.415 257.834 137.063C259.866 137.711 262.047 137.725 264.087 137.103C266.126 136.481 267.929 135.253 269.253 133.582C270.578 131.91 271.362 129.875 271.502 127.748C271.642 125.62 271.13 123.5 270.036 121.669C268.941 119.839 267.315 118.386 265.374 117.502C263.433 116.619 261.27 116.347 259.171 116.724C257.072 117.1 255.137 118.107 253.624 119.61V119.605Z" fill="#A0616A"/>
<path d="M158.71 67.9448C174.693 67.9448 187.65 54.988 187.65 39.0049C187.65 23.0218 174.693 10.0649 158.71 10.0649C142.727 10.0649 129.77 23.0218 129.77 39.0049C129.77 54.988 142.727 67.9448 158.71 67.9448Z" fill="#2F2E41"/>
<path d="M136.121 23.4011C140.797 18.7245 141.745 12.09 138.238 8.58258C134.73 5.07514 128.096 6.02293 123.419 10.6995C118.742 15.3761 117.795 22.0106 121.302 25.518C124.81 29.0255 131.444 28.0777 136.121 23.4011Z" fill="#2F2E41"/>
<path d="M188.873 14.2109C190.821 9.64939 187.47 3.84545 181.388 1.24742C175.306 -1.3506 168.796 0.241088 166.848 4.80261C164.899 9.36414 168.25 15.1681 174.332 17.7662C180.414 20.3642 186.924 18.7724 188.873 14.2109Z" fill="#2F2E41"/>
<path d="M200.816 117.146L178.607 127.077C177.976 127.36 177.29 127.503 176.598 127.496C175.906 127.49 175.223 127.335 174.596 127.041C173.97 126.747 173.414 126.322 172.966 125.794C172.519 125.266 172.19 124.647 172.003 123.981L165.454 100.628C164.031 97.387 163.949 93.7144 165.228 90.4139C166.507 87.1135 169.041 84.4544 172.277 83.019C175.512 81.5836 179.185 81.489 182.49 82.7558C185.795 84.0226 188.463 86.5476 189.91 89.7777L202.911 110.16C203.283 110.743 203.525 111.4 203.621 112.086C203.716 112.772 203.662 113.47 203.463 114.133C203.265 114.796 202.925 115.408 202.468 115.928C202.011 116.448 201.448 116.864 200.816 117.146H200.816Z" fill="#CCCCCC"/>
<path d="M98.2484 214.857C99.7782 214.502 101.211 213.815 102.447 212.846C103.683 211.877 104.691 210.649 105.401 209.248C106.111 207.847 106.505 206.307 106.555 204.738C106.606 203.168 106.311 201.606 105.693 200.163L145.295 110.691L122.641 104.985L90.8365 194.727C88.4802 195.927 86.6458 197.949 85.6809 200.411C84.716 202.873 84.6877 205.603 85.6013 208.084C86.5149 210.565 88.307 212.625 90.6379 213.874C92.9688 215.122 95.6767 215.472 98.2484 214.857Z" fill="#A0616A"/>
<path d="M87.453 377.033L98.973 381.227L120.634 338.789L103.631 332.599L87.453 377.033Z" fill="#A0616A"/>
<path d="M117.295 400.013L81.0896 386.831L86.1828 372.842L108.4 380.932C112.11 382.283 115.131 385.052 116.799 388.63C118.468 392.209 118.646 396.303 117.295 400.013L117.295 400.013Z" fill="#2F2E41"/>
<path d="M114.702 352.611C113.995 352.611 113.297 352.454 112.658 352.152L99.4185 345.881C98.3331 345.372 97.4778 344.474 97.0209 343.366C96.5641 342.257 96.5388 341.018 96.95 339.891L134.314 236.423C134.623 235.566 135.169 234.815 135.889 234.256C136.608 233.697 137.471 233.353 138.378 233.265C139.285 233.177 140.198 233.348 141.012 233.758C141.825 234.168 142.506 234.8 142.975 235.582L162.737 268.519C163.177 269.253 163.413 270.09 163.422 270.946C163.431 271.801 163.213 272.644 162.789 273.387L118.902 350.189C118.476 350.926 117.864 351.538 117.127 351.964C116.389 352.389 115.553 352.612 114.702 352.611Z" fill="#2F2E41"/>
<path d="M159.628 70.4744C173.192 70.4744 184.189 59.478 184.189 45.9133C184.189 32.3486 173.192 21.3523 159.628 21.3523C146.063 21.3523 135.067 32.3486 135.067 45.9133C135.067 59.478 146.063 70.4744 159.628 70.4744Z" fill="#A0616A"/>
<path d="M194.375 157.583L150.887 145.623L127.757 99.3646C126.646 97.1423 126.121 94.6729 126.233 92.1908C126.345 89.7087 127.089 87.2963 128.395 85.1828C129.701 83.0693 131.526 81.3247 133.696 80.1149C135.867 78.905 138.31 78.27 140.795 78.27H175.394C178.985 78.2677 182.451 79.5931 185.124 81.9914C194.406 90.3059 213.905 114.276 194.563 157.165L194.375 157.583Z" fill="#CCCCCC"/>
<path d="M139.934 126.692L117.901 116.379C117.274 116.085 116.718 115.66 116.27 115.132C115.822 114.604 115.493 113.986 115.306 113.32C115.119 112.653 115.077 111.954 115.184 111.271C115.291 110.587 115.544 109.934 115.927 109.357L129.317 89.1342C130.838 85.9373 133.564 83.4736 136.898 82.283C140.232 81.0923 143.902 81.2717 147.104 82.782C150.306 84.2922 152.778 87.0101 153.98 90.3401C155.182 93.6701 155.015 97.3406 153.515 100.548L146.591 123.71C146.393 124.374 146.053 124.986 145.597 125.506C145.14 126.027 144.577 126.443 143.945 126.725C143.314 127.008 142.628 127.152 141.936 127.146C141.244 127.14 140.561 126.986 139.934 126.692H139.934Z" fill="#CCCCCC"/>
<path d="M166.591 388.629H178.851L184.684 341.341L166.589 341.342L166.591 388.629Z" fill="#A0616A"/>
<path d="M202.496 400.012L163.965 400.013L163.964 385.127L187.608 385.125C191.556 385.125 195.343 386.694 198.135 389.485C200.927 392.277 202.495 396.063 202.496 400.012Z" fill="#2F2E41"/>
<path d="M171.221 370.609C170.118 370.611 169.049 370.233 168.193 369.538C167.338 368.843 166.748 367.874 166.523 366.795C162.999 350.191 144.697 265.144 130.412 221.336C115.878 176.766 140.63 156.465 145.74 152.848C146.284 152.463 146.716 151.941 146.992 151.335L150.705 143.169C151.09 142.326 151.709 141.611 152.488 141.11C153.268 140.609 154.175 140.343 155.102 140.343H155.132C182.96 140.509 192.316 149.281 195.046 153.045C195.449 153.606 195.725 154.248 195.855 154.925C195.985 155.603 195.966 156.302 195.8 156.972L178.192 229.616C178.083 230.067 178.058 230.533 178.119 230.993L195.638 362.893C195.722 363.527 195.679 364.171 195.511 364.788C195.344 365.406 195.055 365.983 194.662 366.488C194.269 366.992 193.78 367.414 193.222 367.727C192.664 368.04 192.05 368.239 191.415 368.313L171.786 370.577C171.598 370.599 171.41 370.61 171.221 370.609Z" fill="#2F2E41"/>
<path d="M133.82 30.4646C139.432 34.333 146.094 36.3917 152.91 36.3644C150.479 38.0504 147.711 39.1892 144.797 39.7024C153.86 41.6465 163.226 41.6991 172.311 39.857C174.33 39.5332 176.278 38.864 178.07 37.8788C178.964 37.3801 179.742 36.699 180.354 35.8798C180.967 35.0606 181.4 34.1217 181.626 33.1241C182.229 29.6756 179.542 26.5425 176.75 24.431C172.474 21.2475 167.544 19.0541 162.317 18.0095C157.09 16.965 151.696 17.0954 146.525 18.3913C143.149 19.264 139.767 20.7386 137.574 23.45C135.381 26.1614 134.731 30.3415 136.82 33.1335L133.82 30.4646Z" fill="#2F2E41"/>
<path d="M422.116 307.116V400.848L397.802 400.145H273.41V323.678L309.706 307.116H422.116Z" fill="#CCCCCC"/>
<path opacity="0.1" d="M422.116 307.116V307.408L413.387 313.25L397.802 323.678H273.41L309.706 307.116H422.116Z" fill="black"/>
<path opacity="0.1" d="M422.116 307.116V400.848L397.802 400.145L397.978 323.501L413.387 313.25L421.975 307.116H422.116Z" fill="black"/>
<path d="M389.344 317.158H313.582L319.22 313.987H391.811L389.344 317.158Z" fill="white"/>
<path d="M475 401.805H1C0.734784 401.805 0.480444 401.7 0.292908 401.512C0.105371 401.325 0 401.07 0 400.805C0 400.54 0.105371 400.286 0.292908 400.098C0.480444 399.91 0.734784 399.805 1 399.805H475C475.265 399.805 475.52 399.91 475.707 400.098C475.895 400.286 476 400.54 476 400.805C476 401.07 475.895 401.325 475.707 401.512C475.52 401.7 475.265 401.805 475 401.805Z" fill="#E6E6E6"/>
<path d="M349.059 136.631H267.059C264.673 136.629 262.386 135.68 260.698 133.992C259.011 132.305 258.062 130.017 258.059 127.631V38.6313C258.062 36.2452 259.011 33.9576 260.698 32.2704C262.386 30.5831 264.673 29.6341 267.059 29.6313H349.059C351.445 29.6341 353.733 30.5831 355.42 32.2704C357.108 33.9576 358.057 36.2452 358.059 38.6313V127.631C358.057 130.017 357.108 132.305 355.42 133.992C353.733 135.68 351.445 136.629 349.059 136.631ZM267.059 31.6313C265.203 31.6334 263.424 32.3716 262.112 33.6839C260.8 34.9962 260.061 36.7755 260.059 38.6313V127.631C260.061 129.487 260.8 131.266 262.112 132.579C263.424 133.891 265.203 134.629 267.059 134.631H349.059C350.915 134.629 352.694 133.891 354.007 132.579C355.319 131.266 356.057 129.487 356.059 127.631V38.6313C356.057 36.7755 355.319 34.9962 354.007 33.6839C352.694 32.3716 350.915 31.6334 349.059 31.6313H267.059Z" fill="#3F3D56"/>
<path d="M283.574 66.6313H275.574C274.381 66.63 273.237 66.1555 272.394 65.3119C271.55 64.4682 271.076 63.3244 271.074 62.1313V54.1313C271.076 52.9383 271.55 51.7944 272.394 50.9508C273.237 50.1072 274.381 49.6327 275.574 49.6313H283.574C284.767 49.6327 285.911 50.1072 286.755 50.9508C287.599 51.7944 288.073 52.9383 288.074 54.1313V62.1313C288.073 63.3244 287.599 64.4682 286.755 65.3119C285.911 66.1555 284.767 66.63 283.574 66.6313Z" fill="#F9FBB7"/>
<path d="M283.574 91.6313H275.574C274.381 91.63 273.237 91.1555 272.394 90.3119C271.55 89.4682 271.076 88.3244 271.074 87.1313V79.1313C271.076 77.9383 271.55 76.7944 272.394 75.9508C273.237 75.1072 274.381 74.6327 275.574 74.6313H283.574C284.767 74.6327 285.911 75.1072 286.755 75.9508C287.599 76.7944 288.073 77.9383 288.074 79.1313V87.1313C288.073 88.3244 287.599 89.4682 286.755 90.3119C285.911 91.1555 284.767 91.63 283.574 91.6313Z" fill="#CCCCCC"/>
<path d="M342.044 61.7683H304.695C303.9 61.7674 303.137 61.4511 302.575 60.8887C302.012 60.3263 301.696 59.5637 301.695 58.7683V57.4944C301.696 56.699 302.012 55.9364 302.575 55.374C303.137 54.8116 303.9 54.4953 304.695 54.4944H342.044C342.84 54.4953 343.602 54.8116 344.165 55.374C344.727 55.9364 345.043 56.699 345.044 57.4944V58.7683C345.043 59.5637 344.727 60.3263 344.165 60.8887C343.602 61.4511 342.84 61.7674 342.044 61.7683Z" fill="#F9FBB7"/>
<path d="M342.044 86.7683H304.695C303.9 86.7674 303.137 86.4511 302.575 85.8887C302.012 85.3263 301.696 84.5637 301.695 83.7683V82.4944C301.696 81.699 302.012 80.9364 302.575 80.374C303.137 79.8116 303.9 79.4953 304.695 79.4944H342.044C342.84 79.4953 343.602 79.8116 344.165 80.374C344.727 80.9364 345.043 81.699 345.044 82.4944V83.7683C345.043 84.5637 344.727 85.3263 344.165 85.8887C343.602 86.4511 342.84 86.7674 342.044 86.7683Z" fill="#CCCCCC"/>
<path d="M283.574 116.631H275.574C274.381 116.63 273.237 116.155 272.394 115.312C271.55 114.468 271.076 113.324 271.074 112.131V104.131C271.076 102.938 271.55 101.794 272.394 100.951C273.237 100.107 274.381 99.6327 275.574 99.6313H283.574C284.767 99.6327 285.911 100.107 286.755 100.951C287.599 101.794 288.073 102.938 288.074 104.131V112.131C288.073 113.324 287.599 114.468 286.755 115.312C285.911 116.155 284.767 116.63 283.574 116.631Z" fill="#CCCCCC"/>
<path d="M342.044 111.768H304.695C303.9 111.767 303.137 111.451 302.575 110.889C302.012 110.326 301.696 109.564 301.695 108.768V107.494C301.696 106.699 302.012 105.936 302.575 105.374C303.137 104.812 303.9 104.495 304.695 104.494H342.044C342.84 104.495 343.602 104.812 344.165 105.374C344.727 105.936 345.043 106.699 345.044 107.494V108.768C345.043 109.564 344.727 110.326 344.165 110.889C343.602 111.451 342.84 111.767 342.044 111.768Z" fill="#CCCCCC"/>
</g>
<defs>
<clipPath id="clip0">
<rect width="476" height="401.805" fill="white"/>
</clipPath>
</defs>
</svg>
