<svg width="501" height="377" viewBox="0 0 501 377" fill="none" xmlns="http://www.w3.org/2000/svg">
<g clip-path="url(#clip0)">
<path opacity="0.4" d="M422.84 144.942C429.47 144.942 434.845 139.561 434.845 132.923C434.845 126.285 429.47 120.904 422.84 120.904C416.21 120.904 410.835 126.285 410.835 132.923C410.835 139.561 416.21 144.942 422.84 144.942Z" fill="#F9FBB7"/>
<path opacity="0.4" d="M169.733 78.8181C179.185 78.8181 186.846 71.1472 186.846 61.6847C186.846 52.2223 179.185 44.5514 169.733 44.5514C160.282 44.5514 152.62 52.2223 152.62 61.6847C152.62 71.1472 160.282 78.8181 169.733 78.8181Z" fill="#F9FBB7"/>
<path opacity="0.4" d="M138.062 81.8868C144.692 81.8868 150.066 76.5058 150.066 69.8679C150.066 63.2301 144.692 57.849 138.062 57.849C131.432 57.849 126.057 63.2301 126.057 69.8679C126.057 76.5058 131.432 81.8868 138.062 81.8868Z" fill="#F9FBB7"/>
<path d="M432.894 267.325C423.409 277.722 423.065 292.868 423.065 292.868C423.065 292.868 438.099 291.156 447.584 280.759C457.07 270.362 457.414 255.217 457.414 255.217C457.414 255.217 442.38 256.928 432.894 267.325Z" fill="#3F3D56"/>
<path d="M438.253 270.317C435.382 284.102 423.317 293.245 423.317 293.245C423.317 293.245 415.905 280.037 418.776 266.252C421.646 252.467 433.711 243.325 433.711 243.325C433.711 243.325 441.123 256.532 438.253 270.317Z" fill="#F9FBB7"/>
<path d="M425.933 128.073V292.404L371.221 337.655H91.3185V165.385L172.99 128.073H425.933Z" fill="#3F3D56"/>
<path opacity="0.1" d="M425.933 128.073V128.732L406.292 141.894L371.221 165.385H91.3185L172.99 128.073H425.933Z" fill="black"/>
<path opacity="0.1" d="M425.933 128.073V292.404L371.221 337.655L371.618 164.988L406.292 141.894L425.616 128.073H425.933Z" fill="black"/>
<path d="M352.191 150.699H181.712L194.399 143.554H357.742L352.191 150.699Z" fill="#2F2E41"/>
<path d="M499.326 346.594C499.326 346.594 502.631 360.431 499.627 361.032C496.622 361.634 481.9 361.44 478.295 362.042C474.689 362.643 467.178 361.634 467.178 358.927C467.178 356.22 474.99 354.415 474.99 354.415C474.99 354.415 486.107 348.398 486.407 348.098C486.707 347.797 499.326 346.594 499.326 346.594Z" fill="#2F2E41"/>
<path d="M496.622 265.075C496.622 265.075 495.721 275.302 495.721 276.205C495.721 277.107 496.622 291.245 495.721 291.847C494.82 292.448 496.322 296.659 496.322 298.164C496.322 299.668 501.129 324.635 499.927 334.261C498.725 343.886 501.73 342.984 500.829 343.886C499.927 344.789 499.927 344.789 499.927 346.594C499.927 348.399 490.313 349.903 490.313 349.903L479.797 283.424L485.205 263.571L496.622 265.075Z" fill="#575A89"/>
<path opacity="0.1" d="M496.622 265.075C496.622 265.075 495.721 275.302 495.721 276.205C495.721 277.107 496.622 291.245 495.721 291.847C494.82 292.448 496.322 296.659 496.322 298.164C496.322 299.668 501.129 324.635 499.927 334.261C498.725 343.886 501.73 342.984 500.829 343.886C499.927 344.789 499.927 344.789 499.927 346.594C499.927 348.399 490.313 349.903 490.313 349.903L479.797 283.424L485.205 263.571L496.622 265.075Z" fill="black"/>
<path d="M495.12 350.805C495.12 350.805 498.125 361.634 495.12 362.236C492.116 362.837 477.393 361.546 473.788 362.148C470.183 362.75 462.671 362.837 462.671 360.13C462.671 357.423 470.483 355.618 470.483 355.618C470.483 355.618 481.6 349.602 481.9 349.301C482.201 349 495.12 350.805 495.12 350.805Z" fill="#2F2E41"/>
<path d="M499.326 253.042C499.326 253.042 502.932 261.766 498.725 266.278C494.519 270.79 489.712 279.814 489.712 280.416C489.712 281.017 498.125 340.878 496.923 344.789C495.721 348.699 496.021 351.106 496.322 351.707C496.622 352.309 493.317 355.618 489.712 355.618C486.107 355.618 480.698 352.911 480.098 350.504C479.497 348.098 480.999 327.342 480.698 323.431C480.398 319.521 478.896 313.805 478.295 312.602C477.694 311.399 474.389 310.196 473.788 306.586C473.187 302.976 468.38 256.953 469.882 255.449C471.384 253.945 499.326 253.042 499.326 253.042Z" fill="#575A89"/>
<path d="M476.492 183.856C482.134 183.856 486.707 179.277 486.707 173.629C486.707 167.98 482.134 163.401 476.492 163.401C470.85 163.401 466.277 167.98 466.277 173.629C466.277 179.277 470.85 183.856 476.492 183.856Z" fill="#FFB9B9"/>
<path d="M482.801 178.743C482.801 178.743 480.698 189.873 482.201 191.076C483.703 192.279 470.783 194.084 470.783 194.084C470.783 194.084 469.281 179.344 468.981 177.84C468.68 176.336 482.801 178.743 482.801 178.743Z" fill="#FFB9B9"/>
<path d="M468.981 193.181C468.981 193.181 472.586 182.653 487.308 185.661C487.308 185.661 490.012 186.564 489.111 187.466C488.21 188.368 487.308 188.368 488.51 189.271C489.712 190.173 491.214 189.271 490.313 190.173C489.411 191.076 498.425 196.49 497.824 206.718C497.223 216.945 499.927 231.384 497.824 233.79C495.721 236.197 499.326 246.725 498.725 248.831C498.124 250.937 502.331 253.644 500.528 254.546C498.725 255.449 466.277 260.863 465.375 254.546C464.474 248.229 465.075 252.741 464.174 251.237C463.272 249.733 462.972 247.026 463.573 243.717C464.174 240.408 465.676 232.286 465.075 229.278C464.474 226.27 465.075 201.002 466.878 197.994C468.68 194.986 468.981 193.181 468.981 193.181Z" fill="#F9FBB7"/>
<path d="M475.29 266.579C475.29 266.579 479.797 283.725 474.088 283.725C468.38 283.725 468.68 265.977 468.68 265.977L475.29 266.579Z" fill="#FFB9B9"/>
<path d="M471.985 173.629C471.985 174.501 473.247 175.055 475.203 175.181H475.206C476.035 175.228 476.867 175.212 477.694 175.133C478.944 175.019 479.461 176.195 479.674 177.747C480.022 180.307 479.536 183.895 480.098 184.458C480.873 185.234 486.524 184.455 488.291 182.695C488.566 182.448 488.749 182.115 488.811 181.751C488.996 180.676 489.525 179.691 490.319 178.944C491.361 177.804 492.846 176.541 494.519 174.531C497.524 170.922 494.519 170.621 493.618 167.914C492.716 165.206 491.214 164.304 491.214 162.499C491.214 160.694 484.304 159.19 478.595 159.491C472.887 159.792 474.089 167.011 474.089 167.011C474.089 167.011 473.749 167.883 473.343 169.008C472.795 170.42 472.349 171.87 472.009 173.346C471.995 173.44 471.987 173.534 471.985 173.629Z" fill="#2F2E41"/>
<path opacity="0.1" d="M473.187 197.693C473.187 197.693 483.402 197.092 484.304 212.132C485.205 227.173 484.905 241.311 484.905 241.611C484.905 241.912 480.698 270.489 476.792 270.489C472.887 270.489 469.882 269.887 468.981 268.383C468.079 266.879 471.384 245.221 471.384 245.221C471.384 245.221 472.887 222.36 470.483 215.14C468.079 207.921 467.779 198.596 473.187 197.693Z" fill="black"/>
<path d="M471.685 196.19C471.685 196.19 481.9 195.588 482.802 210.628C483.703 225.669 483.402 239.807 483.402 240.108C483.402 240.408 479.196 268.985 475.29 268.985C471.384 268.985 468.38 268.384 467.479 266.88C466.577 265.375 469.882 243.717 469.882 243.717C469.882 243.717 471.384 220.856 468.981 213.636C466.577 206.417 466.277 197.092 471.685 196.19Z" fill="#F9FBB7"/>
<path d="M302.293 49.1508C302.293 49.1508 297.841 36.5221 294.626 40.484C291.411 44.4459 299.572 51.1317 299.572 51.1317L302.293 49.1508Z" fill="#A0616A"/>
<path d="M323.316 36.7697L320.638 37.7634C320.638 37.7634 319.358 43.4554 319.853 44.4459C320.348 45.4364 320.595 44.6935 319.853 46.6745C319.111 48.6555 316.885 53.8555 316.638 54.5984C316.391 55.3413 302.293 49.8936 302.293 47.1698C302.293 47.1698 299.325 50.6365 297.841 51.3793C297.841 51.3793 314.165 63.2652 316.391 64.7509C318.616 66.2366 319.853 65.4938 321.832 63.7604C323.81 62.0271 332.219 47.665 332.219 47.665L323.316 36.7697Z" fill="#575A89"/>
<path d="M316.143 124.675C316.143 124.675 316.391 127.399 316.885 127.647C317.38 127.894 321.09 134.085 316.885 135.323C312.681 136.561 310.207 136.066 309.218 136.561C308.229 137.056 290.916 138.047 290.669 135.323C290.421 132.599 299.078 132.104 299.078 132.104C299.078 132.104 306.992 126.904 308.229 124.18C309.465 121.456 316.143 124.675 316.143 124.675Z" fill="#2F2E41"/>
<path d="M366.351 129.628C366.351 129.628 372.286 139.78 370.802 141.018C369.318 142.256 354.866 146.768 352.748 146.961C350.027 147.209 348.048 144.98 350.274 143.742C352.5 142.504 357.199 137.304 357.199 135.571V131.113L366.351 129.628Z" fill="#2F2E41"/>
<path d="M372.039 63.2651C372.039 63.2651 377.233 69.7033 369.071 80.1034L355.468 97.4369C355.468 97.4369 363.877 110.808 364.125 117.742C364.372 124.675 366.103 123.19 366.598 126.161C367.093 129.132 369.319 127.647 367.587 129.875C365.856 132.104 359.425 134.085 357.447 132.352C356.766 131.728 356.235 130.959 355.892 130.102C355.55 129.244 355.405 128.32 355.468 127.399C355.468 126.409 352.006 120.713 351.758 118.98C351.511 117.247 342.36 103.132 342.36 103.132C342.36 103.132 339.392 94.7131 342.855 90.0083C346.317 85.3035 348.605 78.6307 348.605 78.6307C348.605 78.6307 338.403 90.9988 331.23 93.9702C331.23 93.9702 328.51 94.4655 329.004 95.7036C329.499 96.9417 329.004 97.6845 328.262 98.9227C327.52 100.161 322.326 114.523 320.595 118.237C318.864 121.951 319.606 124.18 317.627 125.418C315.649 126.656 306.745 125.666 306.745 124.428C306.745 123.19 307.982 119.971 308.723 118.237C309.465 116.504 315.401 96.4465 314.907 92.9797C314.412 89.513 315.154 84.8082 318.864 82.8273C322.574 80.8463 341.371 64.7509 342.36 64.7509C343.349 64.7509 372.039 63.2651 372.039 63.2651Z" fill="#2F2E41"/>
<path d="M322.326 24.3886C328.063 24.3886 332.714 19.7323 332.714 13.9885C332.714 8.24467 328.063 3.58838 322.326 3.58838C316.589 3.58838 311.939 8.24467 311.939 13.9885C311.939 19.7323 316.589 24.3886 322.326 24.3886Z" fill="#A0616A"/>
<path d="M330.736 14.9789C330.736 14.9789 333.951 20.6742 337.908 21.4171C341.865 22.16 327.52 33.5505 327.52 33.5505C327.52 33.5505 324.058 22.6552 321.09 22.1599C318.122 21.6647 330.736 14.9789 330.736 14.9789Z" fill="#A0616A"/>
<path d="M320.595 38.2553C320.595 41.4744 330.241 50.6364 330.241 50.6364L339.392 58.3126C339.392 58.3126 339.639 61.0365 340.629 61.2841C341.618 61.5317 342.855 61.5317 341.865 63.0175C340.876 64.5032 338.403 67.7223 340.629 68.2175C341.3 68.3197 341.976 68.3842 342.654 68.4107C343.248 68.4453 343.945 68.4775 344.729 68.5072C346.56 68.5716 348.85 68.6137 351.33 68.5964C352.035 68.5939 352.753 68.5856 353.482 68.5716C362.834 68.3859 373.667 67.3087 372.781 63.7603C371.297 57.8174 372.286 55.8364 369.071 52.6174C365.856 49.3983 360.662 38.2553 360.662 38.2553C360.662 38.2553 350.274 20.6742 341.618 20.6742L339.82 20.2012C338.984 19.9808 338.101 20.0292 337.294 20.3394C336.488 20.6496 335.799 21.2059 335.326 21.9296C333.59 24.5767 330.852 28.5535 329.252 29.8361C326.778 31.8171 326.393 30.3958 326.393 30.3958C326.393 30.3958 320.595 35.0362 320.595 38.2553Z" fill="#575A89"/>
<path d="M342.607 75.8938C342.607 75.8938 335.435 87.0368 339.887 89.0177C344.338 90.9987 346.812 77.3795 346.812 77.3795L342.607 75.8938Z" fill="#A0616A"/>
<path d="M329.117 12.8137C328.719 12.7633 328.593 12.2597 328.525 11.863C328.166 9.73887 326.585 7.72459 324.461 7.38169C323.649 7.27353 322.823 7.34016 322.039 7.5771C320.915 7.88574 319.861 8.40544 318.931 9.10851C318.476 9.52476 317.95 9.85548 317.378 10.0848C316.988 10.1994 315.333 10.9361 314.947 11.0607C314.097 11.3348 313.393 12.2257 312.517 12.0493C311.68 11.8806 311.361 10.8678 311.227 10.0229C310.92 8.09822 312.02 5.22637 313.114 3.6142C313.945 2.39078 315.35 1.68669 316.754 1.22864C318.4 0.728518 320.091 0.392139 321.802 0.22438C324.113 -0.0488233 326.506 -0.193772 328.72 0.521276C330.934 1.23633 332.951 2.98549 333.364 5.27781C333.45 5.75532 333.466 6.24442 333.572 6.718C333.829 7.87332 334.593 8.84443 335.038 9.94093C335.359 10.7462 335.509 11.61 335.476 12.4766C335.443 13.3431 335.23 14.1932 334.849 14.9721C334.232 16.2138 333.16 17.4071 333.391 18.7743L331.483 17.2676C331.207 17.1107 330.993 16.8638 330.877 16.5682C330.761 16.2726 330.75 15.9461 330.846 15.6433L331.123 13.2506C331.219 12.8171 331.176 12.3643 330.999 11.957C330.151 10.4734 329.782 12.8977 329.117 12.8137Z" fill="#2F2E41"/>
<path opacity="0.1" d="M347.059 58.808L344.729 68.5073C347.079 68.5915 350.188 68.6361 353.482 68.5717C354.313 66.0757 355.107 63.4732 355.716 61.0366C357.941 52.1222 354.232 38.503 352.253 32.0648C350.274 25.6267 345.328 23.8933 345.328 23.8933C343.3 24.6073 341.384 25.6079 339.639 26.8648C336.424 29.0934 347.059 58.808 347.059 58.808Z" fill="black"/>
<path opacity="0.1" d="M345.08 58.3127L342.654 68.4107C343.248 68.4453 343.945 68.4775 344.729 68.5072C346.559 68.5716 348.85 68.6137 351.33 68.5964C352.223 65.9444 353.086 63.1462 353.737 60.5412C355.963 51.6269 352.253 38.0077 350.274 31.5695C348.296 25.1314 343.967 32.1885 343.967 32.1885C343.967 32.1885 345.699 27.979 342.484 30.2076C339.268 32.4362 345.08 58.3127 345.08 58.3127Z" fill="black"/>
<path d="M344.339 23.3981C344.339 23.3981 349.285 25.1314 351.264 31.5696C353.242 38.0077 356.952 51.6269 354.726 60.5413C352.5 69.4557 347.801 80.5987 347.801 80.5987C347.801 80.5987 343.102 77.132 341.371 77.8748L346.07 58.3127C346.07 58.3127 335.435 28.5981 338.65 26.3695C340.395 25.1127 342.311 24.1121 344.339 23.3981Z" fill="#575A89"/>
<path d="M348.025 147.603L279.598 4.84045L165.182 59.8118L207.262 147.603H348.025Z" fill="#F2F2F2"/>
<path d="M256.442 60.878L195.672 90.0752L197.482 93.8516L258.252 64.6544L256.442 60.878Z" fill="#3F3D56"/>
<path d="M272.532 94.4464L211.762 123.644L213.572 127.42L274.342 98.2228L272.532 94.4464Z" fill="#3F3D56"/>
<path d="M283.584 41.1265L268.496 48.3755L275.737 63.4813L290.825 56.2323L283.584 41.1265Z" fill="#3F3D56"/>
<path d="M299.674 74.6949L284.586 81.9438L291.826 97.0496L306.914 89.8007L299.674 74.6949Z" fill="#3F3D56"/>
<path d="M284.624 30.6633L278.41 48.3637L270.034 45.416L268.888 48.6812L280.514 52.772L287.885 31.8109L284.624 30.6633Z" fill="#45D2F1"/>
<path d="M300.713 64.2316L294.5 81.9319L286.124 78.9848L284.978 82.2494L296.604 86.3403L303.975 65.3792L300.713 64.2316Z" fill="#45D2F1"/>
<path d="M6.60372 311.914L37.5186 305.302L30.9149 274.35L4.21313e-05 280.962L6.60372 311.914Z" fill="#F2F2F2"/>
<path d="M36.6588 266.08C36.6588 266.08 25.3037 274.201 29.0887 277.449C32.8738 280.697 40.4438 267.705 40.4438 267.705L36.6588 266.08Z" fill="#FFB9B9"/>
<path d="M89.1086 278.532C89.1086 278.532 86.9457 305.6 86.405 309.39C85.8643 313.179 85.3236 347.285 84.2421 351.075C83.1607 354.864 82.0792 364.067 82.0792 364.067H75.5906C75.5906 364.067 76.1313 347.285 74.5092 340.789C72.887 334.292 73.4277 316.427 73.4277 316.427C73.4277 316.427 70.1834 284.487 71.8056 280.156C73.4278 275.825 89.1086 278.532 89.1086 278.532Z" fill="#FFB9B9"/>
<path d="M80.4571 362.443C80.4571 362.443 83.1607 364.067 83.1607 365.15C83.1607 366.233 82.62 368.94 83.1607 370.022C83.7014 371.105 87.4865 375.436 85.3236 376.519C83.1607 377.602 73.4278 376.519 73.4278 376.519C73.4278 376.519 73.9685 368.94 74.5092 368.398C75.0499 367.857 73.9685 362.443 73.9685 362.443H80.4571Z" fill="#2F2E41"/>
<path d="M47.7737 277.868C47.7737 277.868 47.0868 305.014 47.2272 308.84C47.3677 312.665 44.3297 346.64 45.0079 350.522C45.686 354.404 45.7966 363.67 45.7966 363.67L52.2494 364.352C52.2494 364.352 53.4711 347.606 55.7654 341.316C58.0597 335.026 59.395 317.203 59.395 317.203C59.395 317.203 65.9701 285.779 64.8109 281.302C63.6518 276.824 47.7737 277.868 47.7737 277.868Z" fill="#FFB9B9"/>
<path d="M47.5801 362.226C47.5801 362.226 44.7212 363.557 44.6077 364.633C44.4942 365.71 44.7481 368.459 44.0969 369.479C43.4456 370.499 39.2274 374.408 41.2648 375.712C43.3023 377.016 53.095 376.962 53.095 376.962C53.095 376.962 53.3518 369.368 52.8708 368.773C52.3899 368.178 54.0329 362.907 54.0329 362.907L47.5801 362.226Z" fill="#2F2E41"/>
<path d="M81.5385 237.929C81.5385 237.929 85.8643 238.471 87.4865 247.674C89.1086 256.877 95.0565 280.156 90.1901 281.78C85.3236 283.404 70.7242 286.652 70.1834 285.57C69.6427 284.487 68.5613 281.78 68.5613 281.78C68.5613 281.78 70.1834 286.652 68.0206 286.652C65.8577 286.652 44.7696 283.404 45.3104 281.78C45.8511 280.156 46.9325 268.246 46.9325 268.246C46.9325 268.246 50.1768 248.215 53.4211 244.967C54.3601 244.065 55.089 242.966 55.5563 241.75C56.0235 240.534 56.2176 239.229 56.1247 237.929H81.5385Z" fill="#2F2E41"/>
<path d="M89.6493 233.599C89.6493 233.599 82.62 231.975 81.5385 234.14C80.4571 236.305 84.2421 239.554 85.8643 239.554C87.4864 239.554 90.1901 237.93 90.1901 237.93L89.6493 233.599Z" fill="#FFB9B9"/>
<path d="M75.0499 187.583C80.4253 187.583 84.7829 183.22 84.7829 177.838C84.7829 172.456 80.4253 168.093 75.0499 168.093C69.6745 168.093 65.317 172.456 65.317 177.838C65.317 183.22 69.6745 187.583 75.0499 187.583Z" fill="#FFB9B9"/>
<path d="M73.4277 184.876C73.4277 184.876 71.8056 192.455 72.887 192.455C73.9684 192.455 64.7762 197.327 64.7762 197.327L57.7469 196.244L55.584 192.996C55.584 192.996 66.9391 185.417 66.9391 181.086C66.9391 176.755 73.4277 184.876 73.4277 184.876Z" fill="#FFB9B9"/>
<path d="M68.5613 192.455C68.5613 192.455 70.1834 191.372 70.7241 191.372H75.0499C75.5906 191.372 82.62 192.996 82.62 192.996L86.9457 217.358C86.9457 217.358 79.3757 229.809 84.7829 239.554C84.7829 239.554 83.1607 238.471 75.5906 239.012C68.0205 239.554 54.5026 241.178 53.9618 241.178C53.4211 241.178 53.4211 236.847 53.9618 235.764C54.5026 234.681 53.4211 235.223 53.4211 232.516C53.4211 229.809 51.799 224.937 51.799 224.937L44.2289 197.327C44.2289 197.327 53.9619 191.913 55.584 192.455C57.2062 192.996 62.0727 194.62 63.1541 194.079C64.2355 193.537 68.5613 192.455 68.5613 192.455Z" fill="#F9FBB7"/>
<path d="M80.9978 193.538L82.62 192.996C82.62 192.996 85.8643 192.455 89.6493 195.703C93.4344 198.951 107.493 208.696 107.493 208.696C107.493 208.696 112.9 213.027 111.278 217.899C109.656 222.771 106.952 234.681 98.8416 234.14C98.8416 234.14 93.9751 240.636 91.2715 239.554C88.5679 238.471 86.405 234.14 88.0272 233.599C89.6494 233.057 93.9751 227.644 93.9751 227.644L88.5679 217.358H86.9458L80.9979 214.109L80.9978 193.538Z" fill="#F9FBB7"/>
<path d="M48.5546 196.786L44.2289 197.327C44.2289 197.327 40.4439 198.951 40.9846 205.989C41.5253 213.027 37.7403 244.967 39.3624 248.757C39.3624 248.757 33.9552 267.163 35.0367 267.705C36.1181 268.246 42.6068 271.494 42.066 269.329C41.5253 267.163 48.014 252.005 48.014 252.005C48.014 252.005 55.584 243.884 52.3397 232.516V223.313L48.5546 196.786Z" fill="#F9FBB7"/>
<path d="M83.1503 187.259L76.2763 188.758L75.393 185.37L75.7326 188.877L64.6435 191.296L64.1558 189.425L64.3432 191.361L57.2407 192.91L55.7213 178.308C54.1593 172.316 59.8602 165.93 65.8451 164.366L68.5002 163.672C72.8959 162.523 80.8861 163.568 82.0334 167.969C80.0254 175.642 76.6023 184.053 83.1503 187.259Z" fill="#2F2E41"/>
</g>
<defs>
<clipPath id="clip0">
<rect width="501" height="377" fill="white"/>
</clipPath>
</defs>
</svg>
