<?xml version="1.0" encoding="UTF-8" standalone="no"?> <!-- Created with Vectornator for iOS (http://vectornator.io/) --><!DOCTYPE svg PUBLIC "-//W3C//DTD SVG 1.1//EN" "http://www.w3.org/Graphics/SVG/1.1/DTD/svg11.dtd">
<svg style="fill-rule:evenodd;clip-rule:evenodd;stroke-linecap:round;stroke-linejoin:round;" xmlns:vectornator="http://vectornator.io" xmlns:xlink="http://www.w3.org/1999/xlink" xmlns="http://www.w3.org/2000/svg" xml:space="preserve" version="1.1" viewBox="0 0 891.048 586.952">
<metadata>
<vectornator:setting key="DynamicGuides" value="1"/>
<vectornator:setting key="Units" value="Points"/>
<vectornator:setting key="GuidesVisible" value="1"/>
<vectornator:setting key="RulersVisible" value="1"/>
<vectornator:setting key="SnapToGuides" value="1"/>
<vectornator:setting key="GridSpacing" value="36"/>
</metadata>
<defs/>
<g id="Untitled" vectornator:layerName="Untitled">
<path d="M882.313+586.36C903.904+505.618+884.276+420.699+836.614+359.382L427.43+466.828L816.218+335.971C623.067+146.535+312.625+324.711+375.844+585.523L882.313+586.36Z" opacity="1" fill="#e6e6e6"/>
<path d="M65.0174+187.221C65.0174+123.996+116.271+72.7419+179.496+72.7419C242.721+72.7419+293.975+123.996+293.975+187.221C293.975+250.446+242.721+301.7+179.496+301.7C116.271+301.7+65.0174+250.446+65.0174+187.221Z" opacity="1" fill="#e6e6e6"/>
<path d="M332.135+229.155L248.686+229.155C242.991+196.234+242.991+162.579+248.686+129.658L332.135+129.658C322.734+162.158+322.734+196.656+332.135+229.155Z" opacity="1" fill="#00b0ff"/>
<path d="M313.619+156.608L262.839+156.608C261.962+156.608+261.252+155.466+261.252+154.055C261.252+152.645+261.962+151.503+262.839+151.503L313.619+151.503C314.495+151.503+315.206+152.645+315.206+154.055C315.206+155.466+314.495+156.608+313.619+156.608Z" opacity="1" fill="#ffffff"/>
<path d="M313.619+180.285L262.839+180.285C261.962+180.285+261.252+179.143+261.252+177.733C261.252+176.322+261.962+175.18+262.839+175.18L313.619+175.18C314.495+175.18+315.206+176.322+315.206+177.733C315.206+179.143+314.495+180.285+313.619+180.285Z" opacity="1" fill="#ffffff"/>
<path d="M72.845+128.184L180.354+128.184C187.69+85.7707+187.69+42.413+180.354+1.36352e-05L72.845+1.36352e-05C84.9567+41.8696+84.9567+86.3141+72.845+128.184Z" opacity="1" fill="#f9fbb7"/>
<path d="M163.391+37.3465L97.9701+37.3465C96.8411+37.3465+95.9257+35.8759+95.9257+34.0584C95.9257+32.2409+96.841+30.7703+97.9701+30.7703L163.391+30.7703C164.52+30.7703+165.436+32.2409+165.436+34.0584C165.436+35.8758+164.52+37.3465+163.391+37.3465Z" opacity="1" fill="#ffffff"/>
<path d="M163.391+67.8504L97.9701+67.8504C96.8411+67.8504+95.9257+66.3797+95.9257+64.5623C95.9257+62.7448+96.841+61.2741+97.9701+61.2741L163.391+61.2741C164.52+61.2741+165.436+62.7448+165.436+64.5623C165.436+66.3797+164.52+67.8504+163.391+67.8504Z" opacity="1" fill="#ffffff"/>
<path d="M163.391+98.3542L97.9701+98.3542C96.8411+98.3542+95.9257+96.8836+95.9257+95.0661C95.9257+93.2487+96.841+91.778+97.9701+91.778L163.391+91.778C164.52+91.778+165.436+93.2487+165.436+95.0661C165.436+96.8836+164.52+98.3542+163.391+98.3542Z" opacity="1" fill="#ffffff"/>
<path d="M1.82562+327.462L109.334+327.462C116.671+285.049+116.671+241.691+109.334+199.278L1.82562+199.278C13.9373+241.148+13.9374+285.592+1.82562+327.462Z" opacity="1" fill="#f9fbb7"/>
<path d="M92.3719+236.625L26.9507+236.625C25.8217+236.625+24.9063+235.154+24.9063+233.337C24.9063+231.519+25.8217+230.048+26.9507+230.048L92.3718+230.048C93.5008+230.048+94.4163+231.519+94.4163+233.337C94.4163+235.154+93.5009+236.625+92.3719+236.625Z" opacity="1" fill="#ffffff"/>
<path d="M92.3719+267.129L26.9507+267.129C25.8217+267.129+24.9063+265.658+24.9063+263.84C24.9063+262.023+25.8217+260.552+26.9507+260.552L92.3718+260.552C93.5008+260.552+94.4163+262.023+94.4163+263.84C94.4163+265.658+93.5009+267.129+92.3719+267.129Z" opacity="1" fill="#ffffff"/>
<path d="M565.524+550.476L581.026+524.453L559.12+515.691L557.113+518.255C552.096+524.666+547.617+538.21+541.524+543.476" opacity="1" fill="#ffb8b8"/>
<path d="M572.953+554.585L572.197+577.184C572.048+581.621+568.385+585.128+563.946+585.084L546.852+584.915L527.575+584.915C527.575+584.915+491.648+584.039+489.896+570.018C489.312+565.345+493.304+562.23+498.886+560.152C512.297+555.204+524.85+548.183+536.087+539.346C538.8+537.177+542.469+536.632+545.695+537.919L567.947+546.894C571.066+548.152+573.065+551.224+572.953+554.585Z" opacity="1" fill="#2f2e41"/>
<path d="M531.063+548.395C531.063+547.427+531.848+546.642+532.816+546.642C533.784+546.642+534.568+547.427+534.568+548.395C534.568+549.363+533.784+550.147+532.816+550.147C531.848+550.147+531.063+549.363+531.063+548.395Z" opacity="1" fill="#ffffff"/>
<path d="M536.693+542.284C536.693+541.316+537.477+540.531+538.445+540.531C539.413+540.531+540.198+541.316+540.198+542.284C540.198+543.252+539.413+544.036+538.445+544.036C537.477+544.036+536.693+543.252+536.693+542.284Z" opacity="1" fill="#ffffff"/>
<path d="M738.745+516.184L731.306+486.821L709.62+496.115L710.014+499.348C710.999+507.429+717.41+520.173+716.825+528.205" opacity="1" fill="#ffb8b8"/>
<path d="M746.871+513.801L761.997+529.975C765.225+533.427+765.108+538.823+761.734+542.131L749.894+553.739L736.263+567.37C736.263+567.37+710.239+592.154+699.087+583.48C695.369+580.588+695.989+575.562+698.467+570.147C704.49+557.081+708.413+543.147+710.091+528.858C710.453+525.572+712.555+522.735+715.594+521.432L737.969+511.919C741.037+510.614+744.594+511.366+746.871+513.801Z" opacity="1" fill="#2f2e41"/>
<path d="M712.393+537.841C712.393+536.873+713.177+536.088+714.145+536.088C715.113+536.088+715.898+536.873+715.898+537.841C715.898+538.809+715.113+539.593+714.145+539.593C713.177+539.593+712.393+538.809+712.393+537.841Z" opacity="1" fill="#ffffff"/>
<path d="M712.052+529.539C712.052+528.571+712.837+527.786+713.805+527.786C714.773+527.786+715.557+528.571+715.557+529.539C715.557+530.507+714.773+531.291+713.805+531.291C712.837+531.291+712.052+530.507+712.052+529.539Z" opacity="1" fill="#ffffff"/>
<path d="M607.314+147.663L616.953+174.827L642.364+159.931C642.364+159.931+629.22+144.158+630.097+135.395L607.314+147.663Z" opacity="1" fill="#ffb8b8"/>
<path d="M585.846+127.071C585.846+113.521+596.831+102.536+610.381+102.536C623.931+102.536+634.916+113.521+634.916+127.071C634.916+140.621+623.931+151.606+610.381+151.606C596.831+151.606+585.846+140.621+585.846+127.071Z" opacity="1" fill="#ffb8b8"/>
<path d="M645.869+156.426L640.73+157.863C640.73+157.863+630.097+157.302+624.839+165.188C619.582+173.074+615.692+171.273+615.692+171.273L594.17+203.743C594.17+203.743+587.16+216.887+589.789+231.784C592.418+246.68+601.18+267.71+601.18+267.71C601.18+267.71+657.261+272.968+659.013+270.339C660.766+267.71+659.013+250.185+659.013+250.185L666.023+172.198C666.023+172.198+658.137+159.054+653.756+159.054C650.928+158.959+648.189+158.046+645.869+156.426Z" opacity="1" fill="#00b0ff"/>
<path d="M663.394+265.081C663.394+265.081+648.498+264.205+642.364+265.958C636.231+267.71+599.428+265.958+599.428+265.958L588.913+331.677L554.739+517.443L591.542+531.463L635.354+427.189L640.612+442.085L707.207+514.814L742.258+499.042L684.425+402.654L666.023+335.182C666.023+335.182+677.415+296.627+661.642+272.968L663.394+265.081Z" opacity="1" fill="#2f2e41"/>
<path d="M602.105+334.594L603.76+334.017L603.76+334.017L636.182+426.9L636.182+426.9L634.527+427.477L634.527+427.477L602.105+334.594L602.105+334.594Z" opacity="0.2" fill="#000000"/>
<path d="M655.838+88.3447C654.442+82.8229+649.777+79.24+645.417+80.3422C645.368+80.3546+645.322+80.3749+645.273+80.3886C645.767+80.1141+646.293+79.9048+646.84+79.7659C651.2+78.6637+655.865+82.2466+657.261+87.7684C658.642+93.2276+656.306+98.531+652.04+99.7157C655.382+97.8632+657.056+93.1627+655.838+88.3447Z" opacity="1" fill="#2f2e41"/>
<path d="M654.81+96.9376C659.209+93.3191+660.458+87.5708+657.602+84.0984C657.569+84.059+657.532+84.0264+657.498+83.9879C657.957+84.3169+658.371+84.7039+658.73+85.1394C661.587+88.6119+660.337+94.3602+655.938+97.9786C651.59+101.556+645.797+101.706+642.905+98.3533C646.007+100.586+650.972+100.095+654.81+96.9376Z" opacity="1" fill="#2f2e41"/>
<path d="M644.308+100.051C639.484+97.0221+637.513+91.4799+639.904+87.6718C642.295+83.8638+648.143+83.232+652.967+86.2606C657.79+89.2893+659.762+94.8316+657.371+98.6396C654.98+102.448+649.132+103.079+644.308+100.051Z" opacity="1" fill="#2f2e41"/>
<path d="M640.164+95.8071C642.474+95.8076+644.735+96.4715+646.678+97.72C648.385+98.7747+649.808+100.232+650.822+101.964C648.512+101.963+646.251+101.299+644.308+100.051C642.601+98.996+641.178+97.539+640.164+95.8071Z" opacity="1" fill="#00b0ff"/>
<path d="M606.879+92.0208L606.879+92.0208C603.157+92.0208+601.987+95.3242+602.695+98.7892C606.734+118.188+605.145+138.338+598.113+156.864L620.625+156.864L624.839+146.89L626.472+156.864L655.946+156.864L655.946+146.805C665.866+106.059+644.83+86.1752+606.879+92.0208Z" opacity="1" fill="#2f2e41"/>
<path d="M603.187+92.8971L600.926+92.8971C591.629+92.897+584.093+100.433+584.093+109.729L584.093+115.68L598.78+113.889L599.866+109.546L600.887+113.632L620.02+111.298L620.02+109.729C620.02+100.433+612.484+92.897+603.187+92.8971Z" opacity="1" fill="#2f2e41"/>
<path d="M640.277+201.363L631.515+266.206L622.324+266.685L640.277+201.363Z" opacity="0.2" fill="#000000"/>
<path d="M649.353+161.19C649.353+161.19+661.153+156.081+668.318+168.942C675.482+181.802+672.566+230.83+671.115+238.084C669.664+245.338+659.508+290.315+659.508+290.315L624.688+283.06C624.688+283.06+621.787+262.749+630.492+264.199L649.353+161.19Z" opacity="1" fill="#00b0ff"/>
<path d="M0+584.712L888+584.712L888+584.712L888+586.952L888+586.952L0+586.952L0+586.952L0+584.712L0+584.712Z" opacity="1" fill="#3f3d56"/>
<g opacity="1">
<path d="M648.949+386.306L567.468+318.554L513.104+383.934L590.063+452.508L648.949+386.306Z" opacity="1" fill="#f2f2f2"/>
<path d="M540.113+393.835L568.987+359.109L568.987+359.109L571.143+360.901L571.143+360.901L542.268+395.627L542.268+395.627L540.113+393.835L540.113+393.835Z" opacity="1" fill="#3f3d56"/>
<path d="M559.272+409.766L588.146+375.04L588.146+375.04L590.302+376.832L590.302+376.832L561.427+411.558L561.427+411.558L559.272+409.766L559.272+409.766Z" opacity="1" fill="#3f3d56"/>
<path d="M572.844+348.138L580.012+339.517L580.012+339.517L588.634+346.686L588.634+346.686L581.465+355.307L581.465+355.307L572.844+348.138L572.844+348.138Z" opacity="1" fill="#3f3d56"/>
<path d="M592.003+364.069L599.171+355.447L599.171+355.447L607.793+362.616L607.793+362.616L600.624+371.238L600.624+371.238L592.003+364.069L592.003+364.069Z" opacity="1" fill="#3f3d56"/>
<path d="M577.728+332.861L578.879+345.364L572.955+345.909L573.167+348.215L581.389+347.458L580.034+332.649L577.728+332.861Z" opacity="1" fill="#57b894"/>
<path d="M596.887+348.792L598.038+361.295L592.114+361.84L592.326+364.146L600.548+363.389L599.194+348.58L596.887+348.792Z" opacity="1" fill="#57b894"/>
</g>
<path d="M631.217+279.433L613.807+331.664C613.807+331.664+577.536+372.287+597.848+372.287C618.159+372.287+628.315+336.016+628.315+336.016L652.98+283.786L631.217+279.433Z" opacity="1" fill="#ffb8b8"/>
</g>
</svg>
