<svg width="499" height="314" viewBox="0 0 499 314" fill="none" xmlns="http://www.w3.org/2000/svg">
<g clip-path="url(#clip0)">
<path d="M499 128.963H498.157V105.85C498.157 104.093 497.812 102.354 497.14 100.731C496.469 99.1076 495.484 97.6329 494.244 96.3907C493.003 95.1486 491.53 94.1632 489.909 93.4909C488.288 92.8187 486.55 92.4727 484.795 92.4727H435.883C434.129 92.4727 432.391 92.8187 430.77 93.4909C429.149 94.1632 427.676 95.1486 426.435 96.3907C425.194 97.6329 424.21 99.1076 423.538 100.731C422.867 102.354 422.521 104.093 422.521 105.85V232.65C422.521 234.407 422.867 236.146 423.538 237.769C424.21 239.392 425.194 240.867 426.435 242.109C427.676 243.351 429.149 244.337 430.77 245.009C432.391 245.681 434.129 246.027 435.883 246.027H484.795C486.55 246.027 488.288 245.681 489.909 245.009C491.53 244.337 493.003 243.351 494.244 242.109C495.484 240.867 496.469 239.392 497.14 237.769C497.812 236.146 498.157 234.407 498.157 232.65V145.415H499V128.963Z" fill="#3F3D56"/>
<path d="M495.314 106.636V233.251C495.314 235.901 494.262 238.443 492.391 240.316C490.519 242.19 487.981 243.243 485.334 243.243H436.187C434.876 243.243 433.579 242.984 432.368 242.482C431.158 241.98 430.058 241.244 429.132 240.316C428.205 239.388 427.471 238.287 426.97 237.074C426.469 235.862 426.211 234.563 426.211 233.251V106.636C426.211 103.987 427.262 101.447 429.133 99.5741C431.004 97.7012 433.541 96.649 436.187 96.6489H442.149C441.857 97.3695 441.745 98.1511 441.825 98.9248C441.905 99.6985 442.173 100.441 442.607 101.086C443.04 101.732 443.626 102.261 444.311 102.627C444.997 102.993 445.762 103.185 446.539 103.186H474.56C475.338 103.187 476.104 102.997 476.791 102.631C477.478 102.266 478.064 101.737 478.498 101.09C478.932 100.444 479.2 99.7009 479.279 98.9263C479.358 98.1516 479.245 97.3694 478.95 96.6489H485.334C487.98 96.6488 490.518 97.7008 492.389 99.5736C494.261 101.446 495.313 103.987 495.314 106.636Z" fill="#D0CDE1"/>
<path d="M486.009 161.473H428.877V176.907H486.009V161.473Z" fill="#00B0FF"/>
<path d="M488.277 174.183H432.958C432.598 174.183 432.252 174.039 431.997 173.784C431.742 173.529 431.598 173.183 431.598 172.822V159.203C431.598 158.842 431.742 158.496 431.997 158.241C432.252 157.985 432.598 157.842 432.958 157.841H488.277C488.637 157.842 488.983 157.985 489.238 158.241C489.493 158.496 489.636 158.842 489.637 159.203V172.822C489.636 173.183 489.493 173.529 489.238 173.784C488.983 174.039 488.637 174.183 488.277 174.183ZM432.958 158.749C432.838 158.749 432.723 158.797 432.638 158.882C432.553 158.967 432.505 159.083 432.505 159.203V172.822C432.505 172.942 432.553 173.057 432.638 173.143C432.723 173.228 432.838 173.276 432.958 173.276H488.277C488.397 173.276 488.512 173.228 488.597 173.143C488.682 173.057 488.73 172.942 488.73 172.822V159.203C488.73 159.083 488.682 158.967 488.597 158.882C488.512 158.797 488.397 158.749 488.277 158.749H432.958Z" fill="#3F3D56"/>
<path d="M442.48 170.098H435.225V171.006H442.48V170.098Z" fill="#3F3D56"/>
<path d="M452.456 170.098H445.201V171.006H452.456V170.098Z" fill="#3F3D56"/>
<path d="M462.431 170.098H455.176V171.006H462.431V170.098Z" fill="#3F3D56"/>
<path d="M472.407 170.098H465.152V171.006H472.407V170.098Z" fill="#3F3D56"/>
<path d="M482.382 170.098H475.127V171.006H482.382V170.098Z" fill="#3F3D56"/>
<path opacity="0.1" d="M495.314 220.378V233.252C495.314 235.901 494.262 238.443 492.391 240.316C490.519 242.19 487.981 243.243 485.334 243.243H436.187C434.876 243.243 433.579 242.984 432.368 242.482C431.158 241.98 430.058 241.244 429.132 240.316C428.205 239.388 427.471 238.287 426.97 237.075C426.469 235.862 426.211 234.563 426.211 233.252V174.029L495.314 220.378Z" fill="black"/>
<path d="M259.748 208.684H45.2755V314H259.748V208.684Z" fill="#D0CDE1"/>
<path opacity="0.1" d="M205.223 314H46.1824C45.9421 313.999 45.7119 313.903 45.542 313.733C45.3721 313.563 45.2763 313.333 45.2756 313.092V209.591C45.2763 209.351 45.372 209.12 45.542 208.95C45.7119 208.78 45.9421 208.684 46.1824 208.684H48.1957L205.223 314Z" fill="black"/>
<path d="M476.941 222.756H144.577V223.664H476.941V222.756Z" fill="#3F3D56"/>
<path d="M249.655 1.96004H154.666V0H111.595V1.96004H16.2143C15.3705 1.96004 14.535 2.12643 13.7554 2.4497C12.9759 2.77297 12.2676 3.2468 11.6709 3.84412C11.0743 4.44145 10.601 5.15058 10.2781 5.93102C9.95519 6.71147 9.789 7.54794 9.789 8.39269V138.611C9.789 140.317 10.4659 141.953 11.6709 143.159C12.8759 144.366 14.5102 145.043 16.2143 145.043H249.655C251.359 145.043 252.994 144.366 254.199 143.159C255.404 141.953 256.081 140.317 256.081 138.611V8.39269C256.081 7.54794 255.914 6.71147 255.592 5.93102C255.269 5.15058 254.795 4.44145 254.199 3.84412C253.602 3.2468 252.894 2.77297 252.114 2.4497C251.335 2.12643 250.499 1.96004 249.655 1.96004Z" fill="#3F3D56"/>
<path d="M247.465 13.3267H18.4053V142.693H247.465V13.3267Z" fill="#D0CDE1"/>
<path d="M132.739 9.80031C134.037 9.80031 135.088 8.74725 135.088 7.44825C135.088 6.14924 134.037 5.09619 132.739 5.09619C131.442 5.09619 130.39 6.14924 130.39 7.44825C130.39 8.74725 131.442 9.80031 132.739 9.80031Z" fill="#00B0FF"/>
<path d="M86.5377 61.6042H81.0966C80.7359 61.6038 80.3901 61.4602 80.1351 61.2049C79.8801 60.9496 79.7367 60.6034 79.7363 60.2423V54.795C79.7367 54.4339 79.8801 54.0877 80.1351 53.8324C80.3901 53.5771 80.7359 53.4335 81.0966 53.4331H86.5377C86.8984 53.4335 87.2441 53.5771 87.4991 53.8324C87.7542 54.0877 87.8976 54.4339 87.898 54.795V60.2423C87.8976 60.6034 87.7542 60.9496 87.4991 61.2049C87.2441 61.4602 86.8984 61.6038 86.5377 61.6042ZM81.0966 54.341C80.9763 54.3412 80.8611 54.389 80.7761 54.4741C80.6911 54.5592 80.6433 54.6746 80.6431 54.795V60.2423C80.6433 60.3627 80.6911 60.4781 80.7761 60.5632C80.8611 60.6483 80.9763 60.6961 81.0966 60.6963H86.5377C86.6579 60.6961 86.7732 60.6483 86.8582 60.5632C86.9432 60.4781 86.991 60.3627 86.9911 60.2423V54.795C86.991 54.6746 86.9432 54.5592 86.8582 54.4741C86.7732 54.389 86.6579 54.3412 86.5377 54.341H81.0966Z" fill="#3F3D56"/>
<path d="M183.572 60.6963H80.1897V61.6042H183.572V60.6963Z" fill="#3F3D56"/>
<path d="M180.851 85.6636H156.819V92.9268H180.851V85.6636Z" fill="#00B0FF"/>
<path d="M182.665 91.1105H160.447C160.086 91.1102 159.74 90.9665 159.485 90.7112C159.23 90.4559 159.087 90.1098 159.087 89.7487V84.3013C159.087 83.9402 159.23 83.5941 159.485 83.3388C159.74 83.0835 160.086 82.9398 160.447 82.9395H182.665C183.026 82.9398 183.371 83.0835 183.626 83.3388C183.881 83.5941 184.025 83.9402 184.025 84.3013V89.7487C184.025 90.1098 183.881 90.4559 183.626 90.7112C183.371 90.9665 183.026 91.1102 182.665 91.1105ZM160.447 83.8474C160.327 83.8475 160.211 83.8954 160.126 83.9805C160.041 84.0656 159.994 84.181 159.993 84.3013V89.7487C159.994 89.869 160.041 89.9844 160.126 90.0695C160.211 90.1546 160.327 90.2025 160.447 90.2027H182.665C182.785 90.2025 182.9 90.1546 182.985 90.0695C183.07 89.9844 183.118 89.869 183.118 89.7487V84.3013C183.118 84.181 183.07 84.0656 182.985 83.9805C182.9 83.8954 182.785 83.8475 182.665 83.8474H160.447Z" fill="#3F3D56"/>
<path d="M364.49 93.8345H319.147V125.611H364.49V93.8345Z" fill="#00B0FF"/>
<path d="M369.025 123.114H325.495C325.014 123.114 324.553 122.922 324.213 122.582C323.873 122.241 323.682 121.78 323.682 121.298V91.3378C323.682 90.8563 323.873 90.3948 324.213 90.0544C324.553 89.714 325.014 89.5225 325.495 89.522H369.025C369.506 89.5225 369.967 89.7139 370.307 90.0544C370.647 90.3948 370.838 90.8563 370.838 91.3378V121.298C370.838 121.78 370.647 122.241 370.307 122.582C369.967 122.922 369.506 123.114 369.025 123.114ZM325.495 91.3378V121.298H369.026L369.025 91.3378H325.495Z" fill="#3F3D56"/>
<path d="M364.037 90.2029H362.223C362.223 86.2298 360.647 82.4195 357.841 79.6102C355.034 76.8008 351.228 75.2225 347.26 75.2225C343.291 75.2225 339.486 76.8008 336.679 79.6102C333.873 82.4195 332.297 86.2298 332.297 90.2029H330.483C330.483 85.7483 332.251 81.4761 335.397 78.3262C338.543 75.1763 342.81 73.4067 347.26 73.4067C351.709 73.4067 355.977 75.1763 359.123 78.3262C362.269 81.4761 364.037 85.7483 364.037 90.2029Z" fill="#3F3D56"/>
<path d="M351.794 102.686C351.795 101.896 351.59 101.119 351.199 100.432C350.808 99.7456 350.244 99.1731 349.564 98.7714C348.884 98.3697 348.111 98.1527 347.321 98.142C346.532 98.1313 345.753 98.3272 345.063 98.7102C344.372 99.0933 343.793 99.6503 343.383 100.326C342.974 101.002 342.748 101.773 342.727 102.563C342.707 103.353 342.892 104.135 343.267 104.832C343.641 105.528 344.19 106.114 344.86 106.533V111.405C344.86 111.721 344.922 112.033 345.042 112.325C345.163 112.616 345.34 112.881 345.563 113.104C345.786 113.327 346.05 113.504 346.341 113.625C346.633 113.746 346.945 113.808 347.26 113.808C347.897 113.808 348.507 113.555 348.957 113.104C349.408 112.654 349.661 112.042 349.661 111.405V106.533C350.313 106.126 350.852 105.559 351.225 104.886C351.598 104.213 351.794 103.456 351.794 102.686Z" fill="#3F3D56"/>
<path d="M136.188 255.44H128.933V256.348H136.188V255.44Z" fill="#3F3D56"/>
<path d="M146.164 255.44H138.909V256.348H146.164V255.44Z" fill="#3F3D56"/>
<path d="M156.139 255.44H148.884V256.348H156.139V255.44Z" fill="#3F3D56"/>
<path d="M166.115 255.44H158.86V256.348H166.115V255.44Z" fill="#3F3D56"/>
<path d="M176.09 255.44H168.835V256.348H176.09V255.44Z" fill="#3F3D56"/>
<path d="M269.27 306.283H56.6114C56.1305 306.282 55.6695 306.091 55.3295 305.751C54.9895 305.41 54.7982 304.949 54.7977 304.467V200.967C54.7982 200.485 54.9895 200.024 55.3295 199.683C55.6695 199.343 56.1305 199.151 56.6114 199.151H269.27C269.751 199.151 270.212 199.343 270.552 199.683C270.892 200.024 271.083 200.485 271.084 200.967V304.467C271.083 304.949 270.892 305.41 270.552 305.751C270.212 306.091 269.751 306.283 269.27 306.283ZM56.6114 200.967V304.467H269.271L269.27 200.967H56.6114Z" fill="#3F3D56"/>
<path d="M66.1334 216.401C67.6359 216.401 68.8539 215.182 68.8539 213.677C68.8539 212.173 67.6359 210.954 66.1334 210.954C64.6308 210.954 63.4128 212.173 63.4128 213.677C63.4128 215.182 64.6308 216.401 66.1334 216.401Z" fill="#3F3D56"/>
<path d="M75.6554 216.401C77.1579 216.401 78.376 215.182 78.376 213.677C78.376 212.173 77.1579 210.954 75.6554 210.954C74.1529 210.954 72.9348 212.173 72.9348 213.677C72.9348 215.182 74.1529 216.401 75.6554 216.401Z" fill="#3F3D56"/>
<path d="M85.1774 216.401C86.68 216.401 87.898 215.182 87.898 213.677C87.898 212.173 86.68 210.954 85.1774 210.954C83.6749 210.954 82.4568 212.173 82.4568 213.677C82.4568 215.182 83.6749 216.401 85.1774 216.401Z" fill="#3F3D56"/>
<path d="M183.118 261.796H121.905C121.545 261.795 121.199 261.652 120.944 261.396C120.689 261.141 120.545 260.795 120.545 260.434V245C120.545 244.638 120.689 244.292 120.944 244.037C121.199 243.782 121.545 243.638 121.905 243.638H183.118C183.479 243.638 183.825 243.782 184.08 244.037C184.335 244.292 184.478 244.638 184.479 245V260.434C184.478 260.795 184.335 261.141 184.08 261.396C183.825 261.652 183.479 261.795 183.118 261.796ZM121.905 244.546C121.785 244.546 121.67 244.594 121.585 244.679C121.5 244.764 121.452 244.879 121.452 245V260.434C121.452 260.554 121.5 260.67 121.585 260.755C121.67 260.84 121.785 260.888 121.905 260.888H183.118C183.239 260.888 183.354 260.84 183.439 260.755C183.524 260.67 183.572 260.554 183.572 260.434V245C183.572 244.879 183.524 244.764 183.439 244.679C183.354 244.594 183.239 244.546 183.118 244.546H121.905Z" fill="#3F3D56"/>
<path d="M198.535 262.25C203.043 262.25 206.697 258.592 206.697 254.079C206.697 249.566 203.043 245.908 198.535 245.908C194.027 245.908 190.373 249.566 190.373 254.079C190.373 258.592 194.027 262.25 198.535 262.25Z" fill="#00B0FF"/>
<path d="M201.255 261.342C199.552 261.342 197.886 260.836 196.469 259.888C195.052 258.941 193.948 257.593 193.296 256.017C192.644 254.441 192.473 252.707 192.806 251.034C193.138 249.361 193.959 247.824 195.164 246.618C196.369 245.412 197.904 244.59 199.575 244.258C201.246 243.925 202.978 244.096 204.552 244.748C206.127 245.401 207.472 246.507 208.419 247.925C209.365 249.343 209.871 251.011 209.871 252.717C209.868 255.004 208.96 257.196 207.344 258.813C205.729 260.43 203.54 261.339 201.255 261.342ZM201.255 245C199.731 245 198.241 245.452 196.973 246.3C195.705 247.148 194.717 248.353 194.134 249.764C193.551 251.174 193.398 252.725 193.695 254.222C193.993 255.719 194.727 257.094 195.805 258.174C196.883 259.253 198.256 259.988 199.752 260.286C201.247 260.583 202.797 260.431 204.205 259.847C205.614 259.262 206.818 258.273 207.665 257.004C208.512 255.735 208.964 254.243 208.964 252.717C208.962 250.671 208.149 248.709 206.704 247.263C205.258 245.816 203.299 245.002 201.255 245Z" fill="#3F3D56"/>
<path d="M201.376 255.938L196.987 251.543L198.269 250.259L201.134 253.127L209.129 241.753L210.612 242.798L201.376 255.938Z" fill="#3F3D56"/>
<path opacity="0.1" d="M196.68 142.693H18.4052V23.1274L196.68 142.693Z" fill="black"/>
<path d="M262.512 140.339H240.157V138.727C240.157 138.685 240.149 138.643 240.133 138.605C240.117 138.566 240.093 138.531 240.064 138.501C240.034 138.471 239.999 138.448 239.96 138.432C239.921 138.415 239.88 138.407 239.838 138.407H232.173C232.131 138.407 232.09 138.415 232.051 138.432C232.012 138.448 231.977 138.471 231.947 138.501C231.918 138.531 231.894 138.566 231.878 138.605C231.862 138.643 231.854 138.685 231.854 138.727V140.339H227.064V138.727C227.064 138.685 227.055 138.643 227.039 138.605C227.023 138.566 227 138.531 226.97 138.501C226.94 138.471 226.905 138.448 226.866 138.432C226.828 138.415 226.786 138.407 226.744 138.407H219.08C219.038 138.407 218.996 138.415 218.957 138.432C218.919 138.448 218.883 138.471 218.854 138.501C218.824 138.531 218.801 138.566 218.785 138.605C218.768 138.643 218.76 138.685 218.76 138.727V140.339H213.97V138.727C213.97 138.685 213.962 138.643 213.946 138.605C213.93 138.566 213.906 138.531 213.876 138.501C213.847 138.471 213.811 138.448 213.773 138.432C213.734 138.415 213.692 138.407 213.651 138.407H205.986C205.944 138.407 205.902 138.415 205.864 138.432C205.825 138.448 205.79 138.471 205.76 138.501C205.73 138.531 205.707 138.566 205.691 138.605C205.675 138.643 205.667 138.685 205.667 138.727V140.339H200.876V138.727C200.876 138.685 200.868 138.643 200.852 138.605C200.836 138.566 200.812 138.531 200.783 138.501C200.753 138.471 200.718 138.448 200.679 138.432C200.64 138.415 200.599 138.407 200.557 138.407H192.892C192.85 138.407 192.809 138.415 192.77 138.432C192.731 138.448 192.696 138.471 192.666 138.501C192.637 138.531 192.613 138.566 192.597 138.605C192.581 138.643 192.573 138.685 192.573 138.727V140.339H187.783V138.727C187.783 138.685 187.774 138.643 187.758 138.605C187.742 138.566 187.719 138.531 187.689 138.501C187.659 138.471 187.624 138.448 187.585 138.432C187.547 138.415 187.505 138.407 187.463 138.407H179.799C179.757 138.407 179.715 138.415 179.676 138.432C179.638 138.448 179.602 138.471 179.573 138.501C179.543 138.531 179.52 138.566 179.504 138.605C179.487 138.643 179.479 138.685 179.479 138.727V140.339H174.689V138.727C174.689 138.685 174.681 138.643 174.665 138.605C174.648 138.566 174.625 138.531 174.595 138.501C174.566 138.471 174.53 138.448 174.492 138.432C174.453 138.415 174.411 138.407 174.369 138.407H166.705C166.663 138.407 166.621 138.415 166.583 138.432C166.544 138.448 166.509 138.471 166.479 138.501C166.449 138.531 166.426 138.566 166.41 138.605C166.394 138.643 166.386 138.685 166.386 138.727V140.339H161.595V138.727C161.595 138.685 161.587 138.643 161.571 138.605C161.555 138.566 161.531 138.531 161.502 138.501C161.472 138.471 161.437 138.448 161.398 138.432C161.359 138.415 161.318 138.407 161.276 138.407H101.236C101.195 138.407 101.153 138.415 101.114 138.432C101.076 138.448 101.04 138.471 101.011 138.501C100.981 138.531 100.957 138.566 100.941 138.605C100.925 138.643 100.917 138.685 100.917 138.727V140.339H96.1268V138.727C96.1268 138.685 96.1185 138.643 96.1024 138.605C96.0864 138.566 96.0629 138.531 96.0332 138.501C96.0036 138.471 95.9684 138.448 95.9296 138.432C95.8909 138.415 95.8493 138.407 95.8074 138.407H88.1428C88.1009 138.407 88.0593 138.415 88.0206 138.432C87.9818 138.448 87.9466 138.471 87.917 138.501C87.8873 138.531 87.8638 138.566 87.8478 138.605C87.8317 138.643 87.8234 138.685 87.8234 138.727V140.339H83.0331V138.727C83.0331 138.685 83.0248 138.643 83.0088 138.605C82.9927 138.566 82.9692 138.531 82.9395 138.501C82.9099 138.471 82.8747 138.448 82.8359 138.432C82.7972 138.415 82.7557 138.407 82.7137 138.407H75.0491C75.0072 138.407 74.9657 138.415 74.9269 138.432C74.8882 138.448 74.853 138.471 74.8233 138.501C74.7937 138.531 74.7701 138.566 74.7541 138.605C74.738 138.643 74.7298 138.685 74.7298 138.727V140.339H69.9394V138.727C69.9394 138.685 69.9311 138.643 69.9151 138.605C69.899 138.566 69.8755 138.531 69.8459 138.501C69.8162 138.471 69.781 138.448 69.7423 138.432C69.7035 138.415 69.662 138.407 69.62 138.407H61.9555C61.9135 138.407 61.872 138.415 61.8332 138.432C61.7945 138.448 61.7593 138.471 61.7296 138.501C61.7 138.531 61.6765 138.566 61.6604 138.605C61.6444 138.643 61.6361 138.685 61.6361 138.727V140.339H56.8457V138.727C56.8457 138.685 56.8375 138.643 56.8214 138.605C56.8054 138.566 56.7818 138.531 56.7522 138.501C56.7225 138.471 56.6873 138.448 56.6486 138.432C56.6098 138.415 56.5683 138.407 56.5264 138.407H48.8618C48.8198 138.407 48.7783 138.415 48.7395 138.432C48.7008 138.448 48.6656 138.471 48.6359 138.501C48.6063 138.531 48.5828 138.566 48.5667 138.605C48.5507 138.643 48.5424 138.685 48.5424 138.727V140.339H43.7521V138.727C43.7521 138.685 43.7438 138.643 43.7278 138.605C43.7117 138.566 43.6882 138.531 43.6585 138.501C43.6289 138.471 43.5937 138.448 43.5549 138.432C43.5162 138.415 43.4746 138.407 43.4327 138.407H35.7681C35.7262 138.407 35.6846 138.415 35.6459 138.432C35.6071 138.448 35.5719 138.471 35.5423 138.501C35.5126 138.531 35.4891 138.566 35.473 138.605C35.457 138.643 35.4487 138.685 35.4487 138.727V140.339H30.6584V138.727C30.6584 138.685 30.6501 138.643 30.6341 138.605C30.618 138.566 30.5945 138.531 30.5648 138.501C30.5352 138.471 30.5 138.448 30.4612 138.432C30.4225 138.415 30.3809 138.407 30.339 138.407H22.6744C22.6325 138.407 22.591 138.415 22.5522 138.432C22.5135 138.448 22.4783 138.471 22.4486 138.501C22.4189 138.531 22.3954 138.566 22.3794 138.605C22.3633 138.643 22.3551 138.685 22.3551 138.727V140.339H7.66459C6.65806 140.339 5.66139 140.538 4.73148 140.924C3.80157 141.309 2.95663 141.874 2.2449 142.587C1.53318 143.299 0.968612 144.145 0.583431 145.076C0.198249 146.007 -5.95452e-07 147.005 0 148.013V151.483C4.81028e-06 153.518 0.807524 155.469 2.24491 156.908C3.6823 158.347 5.63182 159.156 7.66459 159.156H262.512C263.519 159.156 264.515 158.957 265.445 158.572C266.375 158.186 267.22 157.621 267.932 156.908C268.644 156.196 269.208 155.35 269.593 154.419C269.979 153.488 270.177 152.49 270.177 151.483V148.013C270.177 147.005 269.979 146.007 269.593 145.076C269.208 144.145 268.644 143.299 267.932 142.587C267.22 141.874 266.375 141.309 265.445 140.924C264.515 140.538 263.519 140.339 262.512 140.339Z" fill="#3F3D56"/>
<path d="M192.64 98.8281H72.9348C72.5742 98.8277 72.2284 98.6841 71.9734 98.4288C71.7184 98.1735 71.5749 97.8273 71.5745 97.4662V47.5318C71.5749 47.1707 71.7184 46.8245 71.9734 46.5692C72.2284 46.3139 72.5742 46.1703 72.9348 46.1699H192.64C193.001 46.1703 193.347 46.3139 193.602 46.5692C193.857 46.8245 194 47.1707 194.001 47.5318V97.4662C194 97.8273 193.857 98.1735 193.602 98.4288C193.347 98.6841 193.001 98.8277 192.64 98.8281ZM72.9348 47.0778C72.8146 47.078 72.6994 47.1259 72.6144 47.211C72.5294 47.2961 72.4815 47.4114 72.4814 47.5318V97.4662C72.4815 97.5866 72.5294 97.702 72.6144 97.787C72.6994 97.8721 72.8146 97.92 72.9348 97.9202H192.64C192.761 97.92 192.876 97.8721 192.961 97.787C193.046 97.702 193.094 97.5866 193.094 97.4662V47.5318C193.094 47.4114 193.046 47.2961 192.961 47.211C192.876 47.1259 192.761 47.078 192.64 47.0778H72.9348Z" fill="#3F3D56"/>
<path d="M86.5377 75.2224H81.0966C80.7359 75.222 80.3901 75.0784 80.1351 74.823C79.8801 74.5677 79.7367 74.2216 79.7363 73.8605V68.4131C79.7367 68.0521 79.8801 67.7059 80.1351 67.4506C80.3901 67.1953 80.7359 67.0517 81.0966 67.0513H86.5377C86.8984 67.0517 87.2441 67.1953 87.4991 67.4506C87.7542 67.7059 87.8976 68.0521 87.898 68.4131V73.8605C87.8976 74.2216 87.7542 74.5677 87.4991 74.823C87.2441 75.0784 86.8984 75.222 86.5377 75.2224ZM81.0966 67.9592C80.9763 67.9593 80.8611 68.0072 80.7761 68.0923C80.6911 68.1774 80.6433 68.2928 80.6431 68.4131V73.8605C80.6433 73.9809 80.6911 74.0962 80.7761 74.1813C80.8611 74.2664 80.9763 74.3143 81.0966 74.3145H86.5377C86.6579 74.3143 86.7732 74.2664 86.8582 74.1813C86.9432 74.0962 86.991 73.9809 86.9911 73.8605V68.4131C86.991 68.2928 86.9432 68.1774 86.8582 68.0923C86.7732 68.0072 86.6579 67.9593 86.5377 67.9592H81.0966Z" fill="#3F3D56"/>
<path d="M183.572 74.3145H80.1897V75.2224H183.572V74.3145Z" fill="#3F3D56"/>
<path d="M452.456 122.433H120.091V123.341H452.456V122.433Z" fill="#3F3D56"/>
<path d="M120.091 128.789C123.597 128.789 126.44 125.943 126.44 122.433C126.44 118.923 123.597 116.078 120.091 116.078C116.586 116.078 113.743 118.923 113.743 122.433C113.743 125.943 116.586 128.789 120.091 128.789Z" fill="#3F3D56"/>
<path d="M452.456 128.335C455.21 128.335 457.443 126.099 457.443 123.341C457.443 120.583 455.21 118.348 452.456 118.348C449.701 118.348 447.468 120.583 447.468 123.341C447.468 126.099 449.701 128.335 452.456 128.335Z" fill="#3F3D56"/>
<path d="M476.941 228.657C479.696 228.657 481.929 226.422 481.929 223.664C481.929 220.906 479.696 218.67 476.941 218.67C474.186 218.67 471.953 220.906 471.953 223.664C471.953 226.422 474.186 228.657 476.941 228.657Z" fill="#3F3D56"/>
<path d="M145.937 228.657C148.692 228.657 150.925 226.422 150.925 223.664C150.925 220.906 148.692 218.67 145.937 218.67C143.182 218.67 140.949 220.906 140.949 223.664C140.949 226.422 143.182 228.657 145.937 228.657Z" fill="#3F3D56"/>
</g>
<defs>
<clipPath id="clip0">
<rect width="499" height="314" fill="white"/>
</clipPath>
</defs>
</svg>
