<svg width="448" height="231" viewBox="0 0 448 231" fill="none" xmlns="http://www.w3.org/2000/svg">
<g clip-path="url(#clip0)">
<path d="M283.145 128.852H133.352V231H283.145V128.852Z" fill="#00B0FF"/>
<path d="M291.499 116.904H144.094C143.619 116.905 143.164 117.094 142.828 117.43C142.493 117.766 142.304 118.221 142.303 118.697V218.455C142.303 218.69 142.349 218.923 142.439 219.141C142.529 219.358 142.661 219.556 142.828 219.722C142.994 219.889 143.191 220.021 143.409 220.111C143.626 220.201 143.859 220.247 144.094 220.247H291.499C291.735 220.247 291.968 220.201 292.185 220.111C292.402 220.021 292.6 219.889 292.766 219.722C292.932 219.556 293.064 219.358 293.154 219.141C293.244 218.923 293.291 218.69 293.291 218.455V118.697C293.29 118.221 293.101 117.766 292.765 117.43C292.429 117.094 291.974 116.905 291.499 116.904ZM292.097 218.455C292.097 218.533 292.082 218.611 292.052 218.684C292.022 218.756 291.978 218.822 291.922 218.878C291.867 218.933 291.801 218.977 291.728 219.007C291.656 219.037 291.578 219.052 291.499 219.052H144.094C144.016 219.052 143.938 219.037 143.865 219.007C143.793 218.977 143.727 218.933 143.671 218.878C143.616 218.822 143.572 218.756 143.542 218.684C143.512 218.611 143.497 218.533 143.497 218.455V118.697C143.497 118.538 143.56 118.386 143.672 118.274C143.784 118.162 143.936 118.099 144.094 118.099H291.499C291.658 118.099 291.809 118.162 291.921 118.274C292.033 118.386 292.096 118.538 292.097 118.697V218.455Z" fill="#3F3D56"/>
<path d="M216.627 187.392H150.933C150.452 187.392 150.062 187.783 150.062 188.265V194.285C150.062 194.767 150.452 195.158 150.933 195.158H216.627C217.108 195.158 217.499 194.767 217.499 194.285V188.265C217.499 187.783 217.108 187.392 216.627 187.392Z" fill="#3F3D56"/>
<path d="M278.966 180.822H257.485C257.25 180.822 257.017 180.869 256.8 180.959C256.582 181.049 256.385 181.181 256.219 181.347C256.052 181.514 255.92 181.711 255.83 181.929C255.74 182.147 255.694 182.38 255.694 182.615V199.34C255.694 199.575 255.74 199.808 255.83 200.026C255.92 200.243 256.052 200.441 256.219 200.607C256.385 200.774 256.582 200.906 256.8 200.996C257.017 201.086 257.25 201.132 257.485 201.132H278.966C279.201 201.132 279.434 201.086 279.651 200.996C279.869 200.906 280.066 200.774 280.232 200.607C280.399 200.441 280.531 200.243 280.621 200.026C280.711 199.808 280.757 199.575 280.757 199.34V182.615C280.757 182.38 280.711 182.147 280.621 181.929C280.531 181.711 280.399 181.514 280.232 181.347C280.066 181.181 279.869 181.049 279.651 180.959C279.434 180.869 279.201 180.822 278.966 180.822ZM279.563 199.34C279.563 199.498 279.5 199.65 279.388 199.762C279.276 199.874 279.124 199.937 278.966 199.937H257.485C257.327 199.937 257.175 199.874 257.063 199.762C256.951 199.65 256.888 199.498 256.888 199.34V182.615C256.888 182.537 256.903 182.459 256.933 182.386C256.963 182.314 257.007 182.248 257.063 182.192C257.118 182.136 257.184 182.092 257.256 182.062C257.329 182.033 257.407 182.017 257.485 182.017H278.966C279.044 182.017 279.122 182.033 279.195 182.062C279.267 182.092 279.333 182.136 279.389 182.192C279.444 182.248 279.488 182.314 279.518 182.386C279.548 182.459 279.563 182.537 279.563 182.615V199.34Z" fill="#3F3D56"/>
<path d="M274.676 184.681H261.775C261.294 184.681 260.903 185.072 260.903 185.554V186.841C260.903 187.323 261.294 187.714 261.775 187.714H274.676C275.157 187.714 275.548 187.323 275.548 186.841V185.554C275.548 185.072 275.157 184.681 274.676 184.681Z" fill="#3F3D56"/>
<path d="M274.676 189.46H261.775C261.294 189.46 260.903 189.851 260.903 190.332V191.62C260.903 192.102 261.294 192.493 261.775 192.493H274.676C275.157 192.493 275.548 192.102 275.548 191.62V190.332C275.548 189.851 275.157 189.46 274.676 189.46Z" fill="#3F3D56"/>
<path d="M274.676 194.239H261.775C261.294 194.239 260.903 194.629 260.903 195.111V196.399C260.903 196.881 261.294 197.271 261.775 197.271H274.676C275.157 197.271 275.548 196.881 275.548 196.399V195.111C275.548 194.629 275.157 194.239 274.676 194.239Z" fill="#3F3D56"/>
<path d="M182.013 124.073H152.724C152.242 124.073 151.852 124.463 151.852 124.945V136.342C151.852 136.824 152.242 137.215 152.724 137.215H182.013C182.495 137.215 182.885 136.824 182.885 136.342V124.945C182.885 124.463 182.495 124.073 182.013 124.073Z" fill="#3F3D56"/>
<path d="M169.756 130.644C169.756 132.953 168.687 134.825 167.369 134.825C166.05 134.825 164.981 132.953 164.981 130.644C164.981 128.335 167.369 126.462 167.369 126.462C167.369 126.462 169.756 128.335 169.756 130.644Z" fill="#00B0FF"/>
<path d="M393.089 70.5957H392.217V168.139H293.291V169.012H393.089V70.5957Z" fill="#3F3D56"/>
<path d="M133.352 169.012H33.5532V70.5957H34.4248V168.139H133.352V169.012Z" fill="#3F3D56"/>
<path d="M447.721 16.4931H447.162V15.5147H447.581C447.655 15.5147 447.726 15.4853 447.779 15.4328C447.831 15.3804 447.86 15.3093 447.86 15.2352V10.2034C447.86 10.1292 447.831 10.0581 447.779 10.0057C447.726 9.95328 447.655 9.92383 447.581 9.92383H447.162V7.06619C447.162 6.26672 447.005 5.47509 446.699 4.73648C446.394 3.99787 445.946 3.32676 445.381 2.76145C444.816 2.19615 444.146 1.74773 443.408 1.44179C442.67 1.13586 441.879 0.9784 441.08 0.978408H440.459V0.279543C440.459 0.205404 440.43 0.134301 440.378 0.0818768C440.325 0.0294524 440.254 1.15688e-06 440.18 0H435.153C435.079 1.15688e-06 435.008 0.0294524 434.956 0.0818768C434.903 0.134301 434.874 0.205404 434.874 0.279543V0.978408H344.046C343.247 0.9784 342.457 1.13586 341.719 1.44179C340.981 1.74773 340.31 2.19615 339.745 2.76145C339.181 3.32676 338.733 3.99787 338.427 4.73648C338.121 5.47509 337.964 6.26672 337.964 7.06619V136.619C337.964 137.419 338.121 138.211 338.427 138.949C338.733 139.688 339.181 140.359 339.745 140.924C340.31 141.49 340.981 141.938 341.719 142.244C342.457 142.55 343.247 142.707 344.046 142.707H441.08C441.879 142.707 442.67 142.55 443.408 142.244C444.146 141.938 444.816 141.49 445.381 140.924C445.946 140.359 446.394 139.688 446.699 138.949C447.005 138.211 447.162 137.419 447.162 136.619V22.084H447.721C447.795 22.084 447.866 22.0545 447.918 22.0021C447.971 21.9497 448 21.8786 448 21.8044V16.7727C448 16.7359 447.993 16.6996 447.979 16.6657C447.965 16.6318 447.944 16.6009 447.918 16.575C447.892 16.549 447.862 16.5284 447.828 16.5144C447.794 16.5003 447.757 16.4931 447.721 16.4931Z" fill="#3F3D56"/>
<path d="M442.143 4.96045H343.821C343.362 4.96045 342.991 5.33246 342.991 5.79135V136.916C342.991 137.375 343.362 137.747 343.821 137.747H442.143C442.602 137.747 442.974 137.375 442.974 136.916V5.79135C442.974 5.33246 442.602 4.96045 442.143 4.96045Z" fill="#D0CDE1"/>
<path d="M397.781 70.0381H382.372C381.891 70.0381 381.501 70.4287 381.501 70.9105V74.2532C381.501 74.735 381.891 75.1256 382.372 75.1256H397.781C398.262 75.1256 398.652 74.735 398.652 74.2532V70.9105C398.652 70.4287 398.262 70.0381 397.781 70.0381Z" fill="#3F3D56"/>
<path d="M418.516 30.4277H361.637C361.155 30.4277 360.765 30.8183 360.765 31.3002V31.7357C360.765 32.2175 361.155 32.6081 361.637 32.6081H418.516C418.998 32.6081 419.388 32.2175 419.388 31.7357V31.3002C419.388 30.8183 418.998 30.4277 418.516 30.4277Z" fill="#3F3D56"/>
<path d="M418.516 37.332H361.637C361.155 37.332 360.765 37.7226 360.765 38.2045V38.64C360.765 39.1218 361.155 39.5124 361.637 39.5124H418.516C418.998 39.5124 419.388 39.1218 419.388 38.64V38.2045C419.388 37.7226 418.998 37.332 418.516 37.332Z" fill="#3F3D56"/>
<path d="M418.516 44.2368H361.637C361.155 44.2368 360.765 44.6274 360.765 45.1092V45.5448C360.765 46.0266 361.155 46.4172 361.637 46.4172H418.516C418.998 46.4172 419.388 46.0266 419.388 45.5448V45.1092C419.388 44.6274 418.998 44.2368 418.516 44.2368Z" fill="#3F3D56"/>
<path d="M418.516 51.1411H361.637C361.155 51.1411 360.765 51.5317 360.765 52.0135V52.4491C360.765 52.9309 361.155 53.3215 361.637 53.3215H418.516C418.998 53.3215 419.388 52.9309 419.388 52.4491V52.0135C419.388 51.5317 418.998 51.1411 418.516 51.1411Z" fill="#3F3D56"/>
<path d="M418.516 58.0459H361.637C361.155 58.0459 360.765 58.4365 360.765 58.9183V59.3539C360.765 59.8357 361.155 60.2263 361.637 60.2263H418.516C418.998 60.2263 419.388 59.8357 419.388 59.3539V58.9183C419.388 58.4365 418.998 58.0459 418.516 58.0459Z" fill="#3F3D56"/>
<path d="M388.001 132.504C398.057 132.504 406.209 124.344 406.209 114.279C406.209 104.213 398.057 96.0537 388.001 96.0537C377.945 96.0537 369.794 104.213 369.794 114.279C369.794 124.344 377.945 132.504 388.001 132.504Z" fill="#00B0FF"/>
<path d="M393.368 128.336C388.853 128.336 384.439 126.996 380.685 124.485C376.931 121.975 374.005 118.406 372.277 114.231C370.55 110.055 370.097 105.461 370.978 101.029C371.859 96.5963 374.033 92.5249 377.226 89.3293C380.418 86.1337 384.486 83.9574 388.914 83.0758C393.342 82.1941 397.932 82.6466 402.104 84.3761C406.275 86.1055 409.84 89.0342 412.349 92.7919C414.857 96.5495 416.196 100.967 416.196 105.487C416.189 111.545 413.782 117.353 409.502 121.636C405.223 125.92 399.42 128.329 393.368 128.336ZM393.368 83.4676C389.017 83.4676 384.764 84.759 381.146 87.1785C377.529 89.598 374.709 93.0368 373.044 97.0603C371.379 101.084 370.944 105.511 371.792 109.782C372.641 114.053 374.736 117.977 377.813 121.056C380.889 124.136 384.809 126.233 389.076 127.082C393.343 127.932 397.766 127.496 401.786 125.829C405.806 124.163 409.241 121.341 411.658 117.72C414.076 114.099 415.366 109.841 415.366 105.487C415.359 99.6488 413.039 94.052 408.915 89.9241C404.791 85.7961 399.2 83.4742 393.368 83.4676Z" fill="#3F3D56"/>
<path d="M67.7636 38.3482H67.0169V17.873C67.0169 16.3167 66.7106 14.7757 66.1157 13.338C65.5207 11.9002 64.6486 10.5938 63.5492 9.49338C62.4498 8.39296 61.1447 7.52006 59.7083 6.92452C58.2719 6.32898 56.7323 6.02246 55.1776 6.02246H11.8393C10.2845 6.02246 8.74499 6.32897 7.30858 6.92452C5.87217 7.52006 4.56702 8.39296 3.46764 9.49338C2.36826 10.5938 1.49619 11.9002 0.90121 13.338C0.306231 14.7757 -1.71691e-06 16.3167 0 17.873V130.202C-1.71691e-06 131.758 0.306231 133.299 0.90121 134.737C1.49619 136.174 2.36827 137.481 3.46765 138.581C4.56703 139.682 5.87218 140.554 7.30859 141.15C8.745 141.746 10.2845 142.052 11.8393 142.052H55.1776C56.7324 142.052 58.2719 141.746 59.7083 141.15C61.1447 140.554 62.4499 139.682 63.5492 138.581C64.6486 137.481 65.5207 136.174 66.1157 134.737C66.7106 133.299 67.0169 131.758 67.0169 130.202V52.9228H67.7636V38.3482Z" fill="#3F3D56"/>
<path d="M64.4957 18.5697V130.734C64.4961 133.082 63.565 135.333 61.9071 136.993C60.2493 138.653 58.0005 139.586 55.6556 139.586H12.1081C9.7631 139.586 7.51436 138.653 5.85652 136.993C4.19868 135.333 3.26754 133.082 3.26794 130.734V18.5697C3.2682 16.223 4.19964 13.9725 5.85743 12.3131C7.51522 10.6538 9.76359 9.72144 12.1081 9.72119H17.3914C17.1314 10.3596 17.0322 11.0522 17.1026 11.7379C17.173 12.4237 17.4108 13.0816 17.7951 13.6538C18.1793 14.2259 18.6982 14.6947 19.3061 15.0188C19.914 15.3429 20.5922 15.5123 21.2809 15.5123H46.1092C46.7979 15.5124 47.4761 15.3429 48.084 15.0188C48.6919 14.6947 49.2108 14.2259 49.5951 13.6538C49.9793 13.0817 50.2171 12.4237 50.2875 11.7379C50.3579 11.0522 50.2587 10.3596 49.9987 9.72119H55.6556C58.0001 9.72145 60.2484 10.6538 61.9062 12.3131C63.564 13.9725 64.4955 16.223 64.4957 18.5697Z" fill="#D0CDE1"/>
<path d="M38.8431 75.8022H28.9206C28.4392 75.8022 28.049 76.1928 28.049 76.6747V78.3901C28.049 78.872 28.4392 79.2626 28.9206 79.2626H38.8431C39.3244 79.2626 39.7147 78.872 39.7147 78.3901V76.6747C39.7147 76.1928 39.3244 75.8022 38.8431 75.8022Z" fill="#3F3D56"/>
<path d="M53.0772 48.8613H14.6865C14.2773 48.8613 13.9457 49.1933 13.9457 49.6028C13.9457 50.0123 14.2773 50.3443 14.6865 50.3443H53.0772C53.4864 50.3443 53.818 50.0123 53.818 49.6028C53.818 49.1933 53.4864 48.8613 53.0772 48.8613Z" fill="#3F3D56"/>
<path d="M53.0772 53.5576H14.6865C14.2773 53.5576 13.9457 53.8896 13.9457 54.2991C13.9457 54.7086 14.2773 55.0406 14.6865 55.0406H53.0772C53.4864 55.0406 53.818 54.7086 53.818 54.2991C53.818 53.8896 53.4864 53.5576 53.0772 53.5576Z" fill="#3F3D56"/>
<path d="M53.0772 58.2539H14.6865C14.2773 58.2539 13.9457 58.5859 13.9457 58.9954C13.9457 59.4049 14.2773 59.7369 14.6865 59.7369H53.0772C53.4864 59.7369 53.818 59.4049 53.818 58.9954C53.818 58.5859 53.4864 58.2539 53.0772 58.2539Z" fill="#3F3D56"/>
<path d="M53.0772 62.9497H14.6865C14.2773 62.9497 13.9457 63.2817 13.9457 63.6912C13.9457 64.1007 14.2773 64.4327 14.6865 64.4327H53.0772C53.4864 64.4327 53.818 64.1007 53.818 63.6912C53.818 63.2817 53.4864 62.9497 53.0772 62.9497Z" fill="#3F3D56"/>
<path d="M53.0772 67.646H14.6865C14.2773 67.646 13.9457 67.978 13.9457 68.3875C13.9457 68.797 14.2773 69.129 14.6865 69.129H53.0772C53.4864 69.129 53.818 68.797 53.818 68.3875C53.818 67.978 53.4864 67.646 53.0772 67.646Z" fill="#3F3D56"/>
<path d="M30.4516 124.395C37.3864 124.395 43.0083 118.767 43.0083 111.826C43.0083 104.884 37.3864 99.2573 30.4516 99.2573C23.5167 99.2573 17.8949 104.884 17.8949 111.826C17.8949 118.767 23.5167 124.395 30.4516 124.395Z" fill="#00B0FF"/>
<path d="M34.1526 121.52C31.0389 121.52 27.9951 120.596 25.4062 118.864C22.8172 117.133 20.7994 114.672 19.6078 111.792C18.4162 108.913 18.1045 105.745 18.7119 102.688C19.3194 99.631 20.8188 96.8232 23.0205 94.6194C25.2222 92.4155 28.0274 90.9147 31.0812 90.3067C34.1351 89.6987 37.3005 90.0107 40.1772 91.2034C43.0539 92.3961 45.5126 94.4159 47.2425 97.0073C48.9724 99.5987 49.8957 102.645 49.8957 105.762C49.891 109.94 48.2309 113.945 45.2795 116.899C42.3281 119.854 38.3265 121.515 34.1526 121.52ZM34.1526 90.5769C31.1521 90.5769 28.219 91.4675 25.7242 93.1361C23.2294 94.8047 21.285 97.1762 20.1367 99.9509C18.9885 102.726 18.6881 105.779 19.2734 108.724C19.8588 111.67 21.3037 114.376 23.4253 116.499C25.547 118.623 28.2501 120.069 31.1929 120.655C34.1358 121.241 37.1861 120.941 39.9582 119.791C42.7302 118.642 45.0996 116.696 46.7665 114.198C48.4335 111.701 49.3233 108.765 49.3233 105.762C49.3187 101.736 47.719 97.8763 44.8749 95.0295C42.0308 92.1828 38.1747 90.5815 34.1526 90.5769Z" fill="#3F3D56"/>
<path d="M76.4851 163.664H64.2827V175.878H76.4851V163.664Z" fill="#D0CDE1"/>
<path d="M83.8937 168.898H69.0764V154.067H83.8937V168.898ZM69.7206 168.253H83.2494V154.712H69.7206V168.253Z" fill="#3F3D56"/>
<path d="M349.732 163.664H337.53V175.878H349.732V163.664Z" fill="#D0CDE1"/>
<path d="M357.141 168.898H342.324V154.067H357.141V168.898ZM342.968 168.253H356.497V154.712H342.968V168.253Z" fill="#3F3D56"/>
</g>
<defs>
<clipPath id="clip0">
<rect width="448" height="231" fill="white"/>
</clipPath>
</defs>
</svg>
